<?xml version="1.0" encoding="utf-8" ?>
<svg baseProfile="full" height="300mm" version="1.1" viewBox="0,0,200,300" width="200mm" xmlns="http://www.w3.org/2000/svg" xmlns:ev="http://www.w3.org/2001/xml-events" xmlns:xlink="http://www.w3.org/1999/xlink"><defs /><rect fill="#222222" height="300" width="200" x="0" y="0" /><text fill="#FFFFFF" style="font-size:12px; font-family:Arial; font-weight:bold;" x="10" y="20">Over 10km Runs</text><text fill="#FFFFFF" style="font-size:4px; font-family:Arial" x="10" y="280">ATHLETE</text><text fill="#FFFFFF" style="font-size:9px; font-family:Arial" x="10" y="290">Perry</text><text fill="#FFFFFF" style="font-size:4px; font-family:Arial" x="120" y="280">STATISTICS</text><text fill="#FFFFFF" style="font-size:3px; font-family:Arial" x="120" y="285">Number: 6</text><text fill="#FFFFFF" style="font-size:3px; font-family:Arial" x="120" y="290">Weekly: 1.0</text><text fill="#FFFFFF" style="font-size:3px; font-family:Arial" x="141" y="285">Total: 72.4 km</text><text fill="#FFFFFF" style="font-size:3px; font-family:Arial" x="141" y="290">Avg: 12.1 km</text><text fill="#FFFFFF" style="font-size:3px; font-family:Arial" x="167" y="285">Min: 10.0 km</text><text fill="#FFFFFF" style="font-size:3px; font-family:Arial" x="167" y="290">Max: 21.3 km</text><polyline fill="none" points="29.691449814126827,61.926288892296725 29.708178438653704,62.1790966496701 29.657992565014865,62.60044172171911 29.708178438653704,63.38694854181813 29.657992565014865,63.639753204392036 29.758364312234335,64.2858071308001 29.657992565014865,64.7071447632843 29.64126394048799,65.18465894822293 29.72490706318058,65.99923755890632 29.758364312234335,67.17896223930438 29.825278810341842,67.51602429124614 29.92565055761952,68.49911650419381 29.908921933034435,68.80808666974917 29.77509293676121,69.36984855725314 29.79182156128809,69.79116823714139 29.708178438653704,70.43718885695853 29.708178438653704,71.19555642588966 29.758364312234335,71.58878215669392 29.87546468398068,74.06045707695739 29.825278810341842,74.17280472047423 29.808550185873173,74.34132598732685 29.92565055761952,75.54905476854037 29.87546468398068,76.25121704503545 29.959107806673273,76.81294389125833 29.942379182146396,77.34658194576332 29.741635687707458,78.1891634886124 29.64126394048799,78.38576499250485 29.591078066907357,78.72279538847215 29.423791821522173,79.20025348643685 29.47397769516101,79.64962406882114 29.423791821522173,79.67770967401157 29.39033457246842,79.98665089496353 29.273234200722072,80.40793308906723 29.08921933081001,80.71687241941981 29.005576208117418,81.41900428644294 28.855018587317318,81.75602611509385 28.570631970243994,83.46920569310169 28.50371747207828,83.58154447827837 28.35315985127818,86.08105509253801 28.068773234204855,87.14824592234072 28.135687732312363,87.96267460814852 28.135687732312363,88.94559837820998 28.085501858673524,89.00176520615787 27.868029739765916,89.00176520615787 27.717472118907608,89.086015398585 27.349442379141692,89.22643225391221 27.148698884702753,89.39493226206832 26.847583643102553,89.50726546879014 26.462825278751552,89.25451560510555 26.278810408897698,89.17026553162577 26.12825278803939,89.1983488960177 25.659851301112212,89.42301557366591 25.392193308507558,89.64768182826083 23.635687732312363,90.0970130686037 23.234200743434485,90.15317935459461 22.598513011122122,90.34976114765595 21.394052044604905,90.5463426169299 20.691449814126827,90.88333866783069 20.47397769516101,90.8271727254978 20.206319702556357,90.658674739665 19.75464684009785,90.51825956968969 18.934944237873424,90.405927314765 18.182156133814715,90.15317935459461 17.76394052040996,90.0970130686037 17.011152416293044,90.20934561423928 16.693308550165966,90.1250962148988 16.208178438653704,89.87234765991161 14.786245353112463,88.8332646427516 14.0,88.29967795569246 14.585501858731732,88.58051335161872 15.773234200722072,89.28259894967778 16.87732342001982,89.67576508036291 18.60037174716126,89.7880980226546 19.035315985092893,89.76001479695697 19.704460966517217,89.87234765991161 20.223048327083234,89.90043085918296 20.72490706318058,89.7880980226546 21.17657992563909,89.7880980226546 21.644981412624475,89.70384832591662 21.82899628247833,89.70384832591662 22.046468401444145,89.64768182826083 23.769516728585586,89.39493226206832 24.070631970243994,89.28259894967778 24.672862453502603,89.14218216060544 25.62639405200025,89.086015398585 26.36245353159029,88.94559837820998 26.830855018575676,88.9175149542425 27.182156133814715,88.8332646427516 27.44981412636116,88.72093080162449 27.684014869853854,88.74901427192526 28.10223048325861,88.69284732484812 28.219330855004955,88.63668035141018 28.369888475805055,88.63668035141018 28.604089219297748,88.58051335161872 30.22676579921972,88.41201219338109 31.56505576201016,88.0469255342905 32.10037174721947,88.01884189886914 32.58550185873173,87.87842362256197 34.82713754643919,86.78315539671166 35.195167286205105,86.75507146389282 35.579925650556106,86.64273566637712 36.784386617073324,86.08105509253801 37.40334572491702,85.88446626708173 39.193308550165966,85.18236067520775 39.32713754643919,85.04193906102591 40.86617100366857,84.76109533701674 41.81970260216622,84.48025095211779 42.405204460956156,84.25557496820693 42.73977695166832,84.25557496820693 43.07434944238048,84.11515226346091 44.646840148663614,83.91856019919214 45.09851301112212,83.77813709779002 46.15241635683924,83.58154447827837 46.83828996279044,83.58154447827837 47.607806691434234,83.46920569310169 48.41078066913178,83.44112098025653 48.87918215611717,83.44112098025653 49.74907063192222,83.58154447827837 50.10037174721947,83.52537509891408 50.970260223024525,83.55345979193953 51.08736059477087,83.49729039935482 52.5929368029465,83.52537509891408 52.5929368029465,83.69388315766992 52.55947955389274,83.63771383111452 52.693308550165966,83.69388315766992 53.32899628253654,83.55345979193953 54.115241635649,83.52537509891408 54.91821561334655,83.3849515348702 55.93866171000991,83.3849515348702 57.109665427473374,83.32878206297028 57.57806691445876,83.35686680226354 58.782527881034184,83.21644303985522 59.10037174721947,83.24452780550928 59.43494423793163,83.16027348862553 60.723048327083234,83.10410391103505 61.291821561346296,82.90751018104493 61.65985130111221,83.04793430685095 62.74721189588308,83.10410391103505 63.98513011151226,83.01984949491452 65.27323420072207,83.07601911225356 67.21375464682933,83.04793430685095 67.93308550183428,82.90751018104493 68.43494423793163,82.96367985117104 69.30483271373669,82.82325562612095 70.54275092936587,82.57049160454335 71.51301115239039,82.57049160454335 72.41635687730741,82.73900101177423 73.08550185867352,82.71091612705641 73.73791821557097,82.59857652230858 74.28996282524895,82.62666143339447 75.84572490706341,82.45815186754044 77.21747211896582,82.45815186754044 77.73605947953183,82.34581202483241 78.10408921929775,82.43006691678602 79.00743494421476,82.4019819593741 80.5799256505561,82.23347207629558 81.56691449810751,82.20538707257947 82.16914498136612,82.00879186191742 83.18959107802948,82.12113202190085 83.5576208177954,82.09304699183122 84.86245353159029,81.89645159612701 85.48141263937578,81.89645159612701 86.0,82.00879186191742 86.0,81.69985587646806 85.98327137547312,81.78411122447869 85.83271375461482,82.00879186191742 85.3810408921563,82.00879186191742 85.28066914493684,82.09304699183122 85.2304832713562,82.06496195524232 84.76208178437082,82.14921704543667 82.8717472119024,82.17730206233682 82.43680297397077,82.09304699183122 81.91821561334655,82.14921704543667 81.56691449810751,82.12113202190085 79.55947955389274,82.31772704749164 79.10780669143423,82.26155707336875 78.73977695166832,82.31772704749164 77.90334572485881,82.31772704749164 77.05018587358063,82.4019819593741 76.79925650556106,82.34581202483241 75.79553903342457,82.37389699539199 74.72490706318058,82.48623681168101 74.18959107802948,82.34581202483241 73.30297397763934,82.48623681168101 72.98513011151226,82.59857652230858 72.29925650556106,82.62666143339447 71.9646840148489,82.71091612705641 71.36245353159029,82.59857652230858 70.87732342007803,82.73900101177423 70.3587360594538,82.71091612705641 69.68959107802948,82.93559501940763 69.38847583642928,82.7951707612956 68.73605947953183,82.82325562612095 68.40148698881967,82.73900101177423 68.33457249065395,82.7951707612956 68.01672862452688,82.85134048431064 67.59851301112212,82.85134048431064 67.24721189588308,82.93559501940763 66.67843866167823,82.87942533590831 65.49070631968789,82.85134048431064 65.00557620811742,82.87942533590831 64.58736059477087,82.76708588980546 64.05204460961977,82.82325562612095 63.63382899627322,82.7951707612956 63.382899628195446,82.85134048431064 61.96096654271241,83.01984949491452 61.609665427473374,82.99176467639336 61.02416356874164,83.18835826756549 60.17100371746346,83.27261256464408 59.70260223047808,83.3849515348702 59.31784386612708,83.44112098025653 58.71561338286847,83.32878206297028 58.431226765795145,83.44112098025653 58.046468401444145,83.49729039935482 57.6282527880976,83.49729039935482 57.17657992563909,83.3849515348702 56.79182156128809,83.3849515348702 56.557620817795396,83.32878206297028 56.27323420072207,83.3849515348702 55.38661710033193,83.3006973171432 54.98513011151226,83.3849515348702 53.11152416357072,83.35686680226354 52.057620817795396,83.69388315766992 51.907063196995296,84.25557496820693 51.806691449775826,84.3679130129749 51.6728624535026,84.28365948927967 50.769516728585586,84.00281398057996 50.26765799254645,83.75005245763896 49.79925650556106,83.75005245763896 49.4646840148489,83.83430635815603 48.594795538985636,83.72196781096136 47.657992565014865,83.80622173123993 47.28996282524895,83.77813709779002 46.871747211844195,83.77813709779002 46.03531598509289,84.03089856125007 45.784386617073324,83.97472939339787 44.897769516683184,84.11515226346091 44.295539033424575,84.28365948927967 43.77695167285856,84.33982851172186 43.45910780667327,84.45216647724737 43.107806691434234,84.64875766239129 42.405204460956156,84.76109533701674 42.120817843824625,84.87343290600256 41.88661710033193,84.76109533701674 41.73605947953183,84.62067322723306 41.81970260216622,84.62067322723306 41.73605947953183,84.70492651295353 41.217472118965816,84.9576860131856 41.618959107785486,84.50833542033797 41.65241635683924,84.39599750767229 41.53531598509289,83.83430635815603 41.53531598509289,82.73900101177423 41.4516728624003,82.06496195524232 41.50185873603914,80.54836015654291 41.434944237873424,79.45302464730048 41.284386617073324,78.49810856368276 41.41821561334655,77.0938063227004 41.50185873603914,77.0938063227004 41.468401486985385,77.00954766268842 41.56877323414665,76.6444261150391 41.35130111518083,73.8919354133468 41.68587360589299,73.63915247169643 42.221189591044094,73.52680432571651 43.157992565014865,73.49871727273421 43.52602230478078,73.38636899451376 43.542750929365866,72.74036434204754 43.34200743492693,71.08320597912825 43.358736059453804,69.95969569258887 43.291821561346296,69.25749639124842 43.19144981406862,66.16777037026623 43.24163568770746,65.21274795836507 43.07434944238048,62.9936957798418 43.057620817795396,61.95437866955035 43.208178438653704,61.645390755758854 43.308550185814966,60.99932253211591 43.258364312234335,60.74651227484719 43.291821561346296,60.3532508099961 43.5929368029465,60.016168522772205 44.06133828993188,59.95998804896226 45.433085501834285,60.1285293910114 45.934944237873424,60.29707049492572 46.85501858731732,60.69033214493538 47.9423791821464,60.52179159653315 48.21003717469284,60.3532508099961 48.84572490706341,59.67908528322732 49.01301115239039,59.173458638149896 48.996282527863514,58.752101463847794 48.9293680296978,58.44310525694891 48.66171003715135,57.48802101251931 48.42750929365866,57.01047602323524 48.293680297385436,56.87002125089202 47.0223048327025,56.05538031057222 46.620817843824625,55.886833214557555 46.118959107785486,55.77446835173032 45.6505576208001,55.493555731576635 45.19888475834159,55.12836833653273 44.99814126390265,54.62272240576567 44.9646840148489,54.25753234522563 45.048327137483284,53.33050640227157 44.99814126390265,52.93722049268399 45.031598513014615,52.45965728828742 45.19888475834159,51.89781577692338 45.46654275088804,51.307879342435626 45.51672862452688,50.91458676554612 45.39962825278053,50.85840200579696 45.24907063198043,50.83030961604527 44.41263940517092,51.251694767903246 43.82713754643919,51.39215615452122 43.47583643120015,51.42024841195234 42.42193308548303,51.307879342435626 41.88661710033193,51.16741785660997 41.53531598509289,50.942679135456274 39.91263940517092,49.453774414731015 39.594795538985636,49.20093969209847 39.27695167280035,49.11666133217659 39.04275092930766,49.20093969209847 39.293680297385436,50.60557025980961 39.2434944237466,51.50452514470817 39.27695167280035,52.48774929438514 39.36059479549294,52.93722049268399 39.36059479549294,54.1732575571732 39.49442379176617,55.634012124326546 39.56133828993188,56.8419302766124 39.51115241635125,57.7127474048757 39.49442379176617,60.100439183843264 39.66171003715135,60.606061900558416 39.91263940517092,60.83078242011834 40.28066914493684,60.94314252118784 40.782527881034184,61.055502516457636 41.41821561334655,61.055502516457636 41.88661710033193,60.97123253002792 42.6728624535026,60.52179159653315 44.26208178437082,60.044258749781875 44.59665427508298,60.044258749781875 45.63382899627322,60.24089015345089 46.4869888475514,60.77460232991143 46.83828996279044,60.8026923783691 47.256505576195195,60.77460232991143 47.607806691434234,60.71842221322004 48.04275092930766,60.549881704449945 48.394052044604905,60.29707049492572 48.71189591073198,59.90380754871876 48.91263940517092,59.53863365226425 48.996282527863514,59.173458638149896 49.01301115239039,58.78019198840775 48.946096654224675,58.415014653030084 48.795539033424575,58.077926889753144 48.67843866167823,57.57229345924861 48.394052044604905,57.12283972209116 48.05947955389274,56.78574830805155 46.92193308548303,55.94301560638996 45.98513011151226,55.66210338300152 45.282527881034184,55.044094163567934 45.09851301112212,54.76317982369801 45.031598513014615,54.22944075585838 44.78066914493684,53.161955456969736 44.52973977691727,52.74057705177256 43.760223048273474,51.81353932196362 43.17472118959995,51.39215615452122 42.35501858731732,51.22360247075994 41.75278810405871,50.97077149872348 41.434944237873424,50.66175513857888 40.682156133814715,50.15609027745086 39.895910780644044,49.453774414731015 39.57806691445876,49.28521799254668 39.143122676585335,49.22903246556234 38.92565055761952,49.341403493017424 38.92565055761952,49.4256816942725 39.07620817841962,50.01562743559771 39.193308550165966,50.77412481670035 39.12639405200025,52.15064478445129 39.293680297385436,52.93722049268399 39.343866170966066,53.583332373789744 39.37732342001982,54.34180707377527 39.27695167280035,54.819362744587124 39.37732342001982,55.94301560638996" stroke="#4dd2ff" stroke-linecap="round" stroke-linejoin="round" stroke-width="0.5"><title>2022-11-11 10.2km</title></polyline><polyline fill="none" points="153.2746098790667,53.826484506585984 155.60622760580736,52.79722862707786 156.49749445015914,52.4630506255744 158.90868957372732,51.28672840437139 160.3172094973852,50.47130891786219 161.24826504016528,49.74945238142027 162.09974318611785,48.960746778931934 163.24565770028858,47.55709104866037 163.79474173832568,47.03572436233662 165.04410686835763,46.220243785141065 165.81600761745358,45.805814738068875 166.25368329996127,45.471595559836715 166.9778376110189,45.16411217717177 167.13699240464484,45.043792139098514 167.29614719827077,44.82988921915239 167.69403418235015,44.53577138760011 168.3704420553113,44.335235628372175 169.10255410603713,44.02774608763502 169.9222012932296,43.51971623911595 170.35987697573728,43.14537554528579 170.75776395984576,42.89135723941581 171.06015806773212,42.8646184042118 171.27501703915186,42.7710323818028 171.54558018833632,42.730924039206 171.77635463909246,42.75766293742345 172.4527625120536,43.0918981017021 172.58804408661672,43.13200618913106 172.86656497549848,43.118636829829484 173.12121264531743,42.83787955641674 173.09733942625462,42.63733779628819 173.23262100084685,42.356578141370846 173.73395860078745,41.75494563122993 174.13980332456413,41.42070259133834 175.33346427683136,40.96612889721291 175.73930900060805,40.39122165676963 176.0974072862591,39.95000982383499 176.21677338148584,39.81630859103825 176.44754783227108,39.73608770011924 176.68628002272453,39.54890518024331 176.77381515922025,39.30824103301347 177.13191344490042,38.893761497591186 177.13987118459772,38.92050220418241 177.11599796553492,38.94724289817168 177.10804022586672,38.893761497591186 177.18761762266513,38.813539302329445 177.26719501949265,38.61298331789294 177.5934623464418,37.48985670384354 177.66508200357202,37.30266677335021 177.82423679722706,37.00850992049527 177.95951837179018,36.40682069859395 178.39719405429787,35.069710693263914 178.65184172411682,34.641828836152854 178.81895425741095,34.24068666444509 178.81099651774275,34.0 178.6200107653858,34.89588407799238 177.88789871465997,36.941655877610174 177.83219453689526,37.51659807208489 177.6173355654755,38.104904984429595 177.29902597822365,38.67983539146735 177.29902597822365,38.77342816219607 177.10804022586672,39.18790857659769 176.43959009260288,40.0436004993353 175.71543578154524,40.75221060452532 175.34937975619687,41.00623848732357 175.08677434670972,41.03297819826912 174.62522544516833,41.233525628926145 173.68621216272004,41.87527264362143 173.07346620722092,42.0758170971676 172.71536792154075,42.303099954337085 172.12649518510443,42.5571208937763 171.40234087404679,42.97157366937245 171.12381998519413,43.02505122635557 170.27234183924156,43.573193279451516 169.79487745833467,43.96090031482163 169.4765678710828,44.09459178174802 169.24579342029756,44.268390217799606 169.02297670920962,44.37534283691275 168.76037129972246,44.41545001713166 168.25107596008456,44.60261648321466 167.61445678555174,44.95020971082704 167.06537274751463,45.35127617378748 166.80276733799838,45.404751487989415 166.20593686189386,45.75233980185658 165.99107789047412,45.7924460087379 164.79741693820688,46.30045550916475 164.16079776367405,46.64803833622864 163.51622084944393,47.14267176543217 162.72840462095337,48.05171655367667 162.09974318611785,48.867170810495736 161.367631135392,49.60240640557822 160.71509648149367,50.17722032628444 159.53735100859194,50.965909020949766 157.53200060877134,51.98183084608536 155.7415091803996,52.73039318419251 153.35418727586512,53.59924780135407 153.14728604414267,53.59924780135407 152.34355433628662,53.29180845763403 152.08890666646766,53.25170755088766 151.56369584749336,53.31854237973312 151.42841427290114,53.42547794218626 151.38066783480463,53.639348462515045 151.41249879353563,54.32105536666495 151.33292139670812,54.561655848163355 151.1976398221159,54.76215547013635 149.60609188576927,56.00523731510475 149.2559513397864,56.23246438608112 148.09412134625018,56.87404179279474 147.32222059712512,57.43541607360385 146.645812724164,58.02351650685159 146.31954539721482,58.38439330076653 144.41764561328455,59.98826239808477 143.55025198796648,60.81691033858078 142.6987738420139,61.49853102623092 142.38046425476205,61.88611560923164 141.6960986421327,62.95530073604823 140.6934234422224,64.66595504223005 139.41222735345946,66.91111057077433 138.25039735992323,69.18290373491254 138.00370742980158,69.74415627303824 137.1203983251471,71.49469401339957 136.95328579182387,71.73522169762873 136.5315255886817,72.12273637816907 135.72779388082563,73.37880025917912 135.24237176025053,74.2740628666943 134.45455553175998,75.31629109846835 133.64286608420662,76.4653923508813 133.47575355088338,76.7593447484287 133.12561300490052,77.14682512826039 132.95054273190908,77.21363182297137 132.23434616054874,76.89295897131524 131.93990979230148,76.8127904753419 131.61364246538142,76.7593447484287 131.11230486541172,76.77270618485636 130.38815055438317,76.97312735408559 129.91068617347628,77.25371580207502 129.36955987510737,77.4808578154225 128.040617348277,77.68127648409427 127.84167385622277,77.78816615139294 127.89737803398748,78.6699982258724 128.39075789425988,80.27329417147848 128.5180817291839,80.80771608959913 128.70110974184354,83.7603064929026 128.64540556407883,84.58860743584228 128.4862507704529,85.26994269965144 128.24751857999945,85.83103618805762 128.08040604667622,86.3520466041191 127.62681488483213,86.99328362838787 127.55519522767281,87.23374564501864 126.69575934205204,88.8100825277761 126.36949201510288,89.66502659597609 125.78857701833476,92.17635033376791 125.85223893579678,92.60379862904665 125.80449249770027,93.00452848270652 125.07238044697442,94.7543490324897 124.88935243428568,95.10163524606105 123.81505757727427,96.74453738114607 123.27393127890537,97.74628364206364 122.81238237736397,98.4141046626064 122.60548114564153,98.85486223277258 122.35879121551989,99.09527401056403 121.59484820606303,100.2171821791926 121.18900348228635,101.00517585230045 121.18104574258905,101.1120216100062 121.24470766005106,101.2188671666081 121.62667916479404,101.55275823501506 122.86012881546048,102.48764277980445 123.78322661854327,103.06192136734535 123.9423814121692,103.28896013688427 124.00604332963121,104.13033118963358 123.90259271376999,104.29059092882744 123.78322661854327,104.29059092882744 123.64794504395104,104.143686185158 123.4649170312623,104.05020115037769 123.14660744401044,104.15704117758287 122.89991751385969,104.3173008413869 122.82829785672948,104.58439927580184 122.68505854246905,104.86485127948981 122.62139662500704,105.31891349123907 122.66914306310355,105.37233233623556 122.82829785672948,105.425751130977 122.9556216916244,105.51923390079901 124.04583202803042,105.83974508591928 124.56308510733652,105.7729720715979 124.87343695492018,105.62607116352956 126.02730920878821,105.23878512954252 126.40928071350208,105.17201140835823 127.53927974830731,104.86485127948981 128.0485750879452,104.69123829770251 129.17857412275043,104.3974305036536 129.4491372719349,104.26388100370241 130.0857564464677,104.06355616475776 130.5711785670719,103.95671596165994 131.0645584273443,104.03684613285441 132.0433604081918,104.45085021564228 132.45716287163668,104.54433459071879 133.70652800166863,104.93162536196905 134.5420906682557,105.33226820718482 135.39356881417916,105.57265255728271 136.68272264263942,106.0 136.77821551880334,105.95993631390593 137.17610250291182,105.34562292001647 137.76497523934813,104.143686185158 137.87638359487755,103.79645527996763 137.89229907427216,103.55606340925806 137.81272167744464,102.58113038758165 137.70131332188612,102.00684693671428 137.5899049663567,101.80651413365558 137.45462339176447,101.67295853888936 137.01694770925678,101.43255767660958 136.26096243949723,101.37913512451269 135.85511771574966,101.3257125221171 135.26624497928424,101.04524303499056 134.84448477614205,100.91168564936379 134.5420906682557,100.71134898181845 134.0487108079833,100.53772329807543 133.74631670006784,100.25724991800962 133.0619510874385,99.82985924587047 132.27413485894795,99.5493823686993 131.63751568441512,99.01513686444378 131.088431646378,98.62780573005875 130.5632208273746,98.44081734006977 129.87089747507707,98.09355155318917 129.38547535447287,97.94663077310543 128.75681391960825,97.59936196326089 126.82308317694697,97.19866454306975 125.25540845966316,97.10516807141539 124.11745168518974,97.25209102917506 123.934423672501,97.17195128112508 123.81505757727427,97.0383847830999 123.82301531694247,96.8781045705764 124.51533866924001,95.62256058295316 125.08829592633992,94.70092019571894 125.74878831993556,93.71247764437067 126.13871756431763,92.81752156966104 126.24216818020795,92.13627689108762 126.29787235797266,91.18786382333565 126.59230872619082,89.75853532224573 126.60822420555633,89.49136712422114 126.67188612301834,89.30434863744449 126.91857605313999,89.21083916300267 126.9583647515683,89.15740510843534 127.23688564042095,88.27573594636124 128.27934953873046,86.16501777421945 128.35892693552887,86.05814388044746 128.5180817291839,86.04478462959014 128.4385043323564,85.7108023360197 128.66132104344433,85.00275337482162 128.9875883703935,83.62670843468368 129.23427830051514,83.05223320114601 129.93455939250998,82.03686740623743 130.030052268703,81.82310387185134 131.5340650685539,79.5250950326481 132.4810360906704,78.16227840169813 132.94258499221178,77.62783157500235 133.13357074459782,77.4674965456652 133.34047197629116,77.41405143523662 133.79406313816435,77.44077399677917 135.13892114438931,77.78816615139294 137.26363763940753,78.25580607897064 137.70927106158342,78.29588932205297 139.24511482016533,78.6699982258724 142.6510274039174,78.85705175314797 143.2160269213491,78.97730012368993 144.06750506730168,79.21779610062367 144.43356109265005,79.55181660031667 145.49989820999326,80.35345777998009 146.82088299715542,81.32877261522299 147.33813607649063,81.62269982720682 148.09412134625018,81.98342659810805 148.53975476842606,81.98342659810805 149.49468353023985,81.82310387185134 149.99602113018045,81.82310387185134 150.783837358671,81.72958207240663 153.01996220924775,81.64942040737515 153.43376467269263,81.67614097495971 153.96693323136424,81.64942040737515 155.88474849466002,81.79638337343567 156.43383253269712,81.7563026022217 156.65664924381417,81.67614097495971 156.69643794221338,81.60933953242056 156.40995931366342,81.22188961528445 156.07573424701695,80.4336212752678 156.05981876765145,80.25993355906758 155.89270623432822,79.84575301411314 155.7812978787988,79.40484782261774 155.70967822166858,78.9906610380458 155.8131288375298,78.44286097120494 156.2826354787685,77.53430286294679 156.3224241771677,77.24035447884307 156.37812835493241,77.25371580207502 156.51340992952464,76.95976596480978 156.48953671046183,76.67917606370611 156.54524088825565,76.45203084207242 156.8158040374401,75.55680258796929 156.95108561203233,75.23612037546627 156.97495883106603,75.00896937870493 157.22960650088498,74.59475051486152 157.46833869130933,74.04690801967081 157.8343947166868,73.57923341308197 157.93784533254802,73.40552472060881 158.2641126594972,73.04474342972026 158.95643601182383,72.49688597297063 159.17129498321447,72.26972401313469 159.44981587209622,71.74858431687971 159.8477028561756,71.13390057580182 160.03868860853254,70.88000752260268 160.07051956726355,70.74637914368941 160.00685764980153,70.26531437446465 159.91932251330581,68.461285173129 159.74425224031438,67.11156656673484 159.18721046257997,64.74614069764357 158.8927740943618,63.1691353442402 158.57446450708085,61.97967011201399 158.43122519282042,61.164404261111486 158.12087334523676,59.98826239808477 157.8821411547833,59.19969908982239 157.8821411547833,58.97248389967717 157.7866482785903,58.624976555140165 157.46833869130933,56.780478872798994 157.23756424055318,56.045336276085436 157.15002910405747,55.858207549055805 157.00678978979704,55.80474208515443 156.2667199993739,55.898306613958994 155.41524185345042,56.05870259013682 155.20834062172798,56.13890040820479 154.8024958979513,56.4329581048878 154.2374963805487,56.95423845864934 152.56637104737456,58.31756443799895 151.67510420302278,58.932387007000216 151.12602016498568,59.37345126839864" stroke="#ff0000" stroke-linecap="round" stroke-linejoin="round" stroke-width="0.5"><title>2022-10-09 21.3km</title></polyline><polyline fill="none" points="59.07028025249019,137.39971078357485 58.614323614980094,137.29011576525227 56.92077039007563,135.207800580014 55.65060547145549,134.1666359797382 53.59880060283467,131.8102988433966 52.882297315401956,131.31710897240555 51.74240572168492,129.94713160849642 50.92819744057488,128.46754696978314 50.569945796742104,128.02914970934216 50.47224080306478,128.02914970934216 50.08142082800623,128.46754696978314 49.234644215670414,129.45393777723075 48.1924576156307,131.04311414672702 47.28054434072692,132.19389024045086 46.66174604697153,133.2350636930787 45.91267442831304,134.00224114209414 44.47966785333119,135.92017366742948 42.75354629731737,138.60525256954134 41.19026639731601,141.7286726057646 39.72469149110839,145.50959850214713 39.30130318494048,147.92059154251183 39.30130318494048,149.01648918841965 38.94305154122412,151.26306318165734 38.87791487877257,153.78358372158254 39.69212315999903,158.49578781244054 40.1806481287349,159.31767407414736 40.37605811608955,159.48205097705068 40.636604766128585,159.48205097705068 41.320539722335525,158.49578781244054 43.307207928504795,156.24928384461964 43.79573289724067,155.48217994748848 44.25168953463435,154.60548667384137 44.642509509576485,153.0712654749368 45.13103447831236,151.86579884502862 45.71726444084197,150.87950330796593 46.2709260720294,149.18087338886107 48.25759427819867,147.15346011071233 48.55070925934706,146.98907447388046 50.40710414049681,146.44112151030276 51.351585746742785,146.00275820759998 52.32863568409812,145.83837175555527 54.34787222149316,146.27673536873772 55.25978549651336,146.11234911093197 57.08361204632092,145.50959850214713 59.10284858371597,144.3588884468627 59.75421520869713,144.13970493232773 60.27530850865878,144.24929671552673 61.12208512111101,144.19450083031552 62.75050168344751,144.68766333071108 63.401868308428675,144.63286754918227 63.434436639770865,144.19450083031552 61.93629340233747,141.29030040027283 61.48033676482737,140.57794379998813 59.13541691494174,137.89288772578584 57.507000352605246,136.3037582700781 57.409295358811505,135.9749715065409 57.507000352605246,135.86537581533776 58.15836697758641,135.92017366742948 59.9496251961682,136.46815147703455 62.131703389808536,136.9065327932185 63.825256614713,137.01612799265422 64.15093992720358,136.9613303993974 64.28121325210668,136.79693754173059 63.3692999772029,132.79667544017138 62.45738670229912,129.28953960054787 62.09913505858276,128.85114389330556 61.15465345233679,128.41274735760817 61.05694845865946,127.48115196901199 60.89410680241417,127.04275284495088 60.56842348992359,126.71395295820548 59.982193527393974,126.8783529598004 57.18131704011466,128.1935487791343 55.39005882141646,128.90594340194366 53.76164225907996,129.89233234562562 51.80754238425288,130.3855252449721 51.253880752949044,130.2759269135131 50.765355784329586,129.45393777723075 50.439672471839,128.5771461554832 50.70021912176162,127.37155226565665 51.15617575927172,126.43995269676088 50.96076577168424,126.00155160523718 49.95114750310313,125.06994653547008 49.234644215670414,124.52194180608785 48.1924576156307,122.87791985178774 47.67136431566905,121.72709755289543 46.108084415784106,119.4802375654981 45.03332948463503,118.27459640693269 44.02371121593751,116.63053018563369 42.72097796597518,115.86329529558134 40.83201475359965,114.21921198781638 40.21321645984426,114.05480301633361 38.87791487877257,114.0 36.8912466726033,114.21921198781638 36.33758504141588,114.16440901030728 35.165125116473064,114.38362084292748 32.592226947890595,114.3288179042429 30.507853747927584,114.49322668144305 29.79135046049487,114.65763534221333 29.042278841836378,115.31526882073376 27.934955579345115,116.90454203165427 26.957905641989782,118.11019030907482 25.85058237949852,118.82261589200061 24.026755829690956,119.75424604580621 22.919432567199692,119.80904770313646 22.040087623521686,120.13785737479338 21.193311011069454,120.08305579527223 18.35986619256437,119.8638493475446 16.666312967659906,119.58984099641384 16.53603964264039,120.02825420275622 16.503471311414614,120.90507813025033 16.666312967659906,121.72709755289543 16.926859617582522,122.4943130530446 17.31767959264107,123.26152601634385 18.58784451126121,126.60435289240559 18.913527823751792,127.9195502649236 18.81582282995805,128.41274735760817 18.327297861222178,129.07034185038356 17.610794573789462,129.6731351649505 17.15483793639578,130.2759269135131 16.894291286356747,130.76911899751576 16.76401796133723,131.59110347463866 16.861722955014557,132.3582863592892 17.96904621750582,134.495425305533 18.978664486203343,135.9749715065409 19.695167773636058,137.5641032140411 19.85800942988135,138.33126634990913 19.239211136242375,142.3862293612765 18.946096154977567,143.70133728178916 18.55527617991902,144.9068463278527 18.42500285501592,145.6191896384844 17.675931236241013,147.75620644923765 17.578226242563687,148.63292560109403 17.21997459884733,150.44114839014946 16.991996280150488,153.3452342901437 16.76401796133723,154.3863128380035 15.591558036394417,157.94786202089745 15.461284711491317,158.55058032054512 15.493853042600676,159.42725868894195 15.754399692639709,159.64642776355322 15.98237801133655,159.64642776355322 17.44795291754417,159.09850468901277 18.685549504938535,158.55058032054512 19.304347798693925,158.05744728288846 19.85800942988135,157.8382767072908 20.346534398617223,157.50952045610757 21.09560601739213,157.2355565574544 22.1703609485412,156.68762779007375 23.11484255467076,156.4136629211862 24.450144135858864,155.6465595674672 25.590035729575902,155.42738671485859 27.055610635667108,154.7698669150268 27.739545591990463,154.27672584225365 28.651458866894245,154.00275812704058 29.498235479346476,153.50961542395817 34.546326822717674,152.4137389985699 37.18436165386811,151.97538697929122 37.70545495382976,151.8110047585942 38.48709490383044,151.8110047585942 38.97561987256631,152.08497506163258 39.171029859920964,152.74250246965676 39.171029859920964,154.7698669150268 39.75725982245058,157.8382767072908 40.21321645984426,162.65998154740373 39.85496481624432,165.4543328127329 39.30130318494048,167.64595731830923 39.10589319746941,168.74176180888026 38.55223156628199,170.54982790519716 37.379771641339175,173.0153498784348 36.04447006015107,174.82338267665182 35.36053510394413,175.42605714543606 34.87201013520826,176.02873004922003 34.35091683524661,176.90534238766122 33.439003560342826,178.05589105637046 31.15922037290875,180.3021839212015 29.237688829307444,182.11015994545596 28.065228904481046,183.53461598290596 27.641840598196723,184.19205428182613 26.6322223294992,185.3973529921932 26.273970685782842,186.0 26.404244010685943,186.0 26.6322223294992,185.17820823771763 27.185883960686624,184.4111999674351 28.260638891835697,183.37025611719582 29.628508804249577,181.45271574816434 30.377580423024483,180.57612058795348 31.680313672986813,179.69952211611962 32.4293852916453,179.04207108929404 32.98304692283273,178.65855713008204 33.60184521658812,177.78195141446486 34.481190160266124,177.0149186970084 35.490808428963646,175.64521110967326 36.760973347583786,173.61802904310753 37.51004496635869,172.90577168030723 39.23616652248893,171.91956556883815 40.21321645984426,171.91956556883815 41.25540305976756,171.59082926691917 41.87420135352295,170.76898647473718 42.62327297218144,169.56361178081715 43.50261791597586,168.74176180888026 45.359012797125615,168.02948947859113 45.880106097087264,167.75553800023044 46.88972436578479,166.2214037442027 47.70393264689483,164.79684142477345 48.81125590938609,163.37227035964315 50.048852496780455,162.22164888384577 50.569945796742104,161.89289884276513 51.6121323966654,160.90664592510439 52.556614002911374,160.46830994964694 53.43595894658938,159.81080443358223 54.93410218402278,159.59163551425445 55.976288783946075,158.93412751422147 56.75792873383034,157.72869134205393 56.95333872141782,157.2355565574544 57.18131704011466,156.24928384461964 57.246453702566214,154.98904038853652 56.79049706517253,151.86579884502862 56.75792873383034,149.56443607021356 56.62765540892724,148.63292560109403 56.26940376509447,147.7014113921614 56.26940376509447,147.3178456308815 57.05104371509515,146.71509815381432 57.83268366509583,146.27673536873772 59.33082690241281,145.29041607449471 60.56842348992359,145.34521170095832 61.447768433601595,145.6739851871389 62.815638346015476,145.83837175555527 63.98809827095829,146.38632614264498 65.1605581959011,147.9753865476814 66.10503980203066,149.67402529151877 66.43072311452124,150.00279264438723 67.31006805819925,150.60553158129915 68.09170800819993,150.8247089884535 71.51138278923463,150.76991465616447 73.33520933915861,151.09868045631447 75.06133089528885,151.15347471095447 75.97324417019263,151.42744579051214 76.75488412019331,151.31785739747284 77.82963905134238,151.37265160056995 78.70898399502039,151.15347471095447 78.74155232624616,151.04388618854864 77.17827242636122,151.42744579051214 75.15903588908259,151.6466224212927 73.79116597655229,151.48223996770685 72.84668437042274,151.48223996770685 70.82744783302769,151.15347471095447 67.76602469570935,150.98909190787526 67.08208973950241,150.66032595257275 66.46329144574702,150.16717614608933 65.87706148333382,149.45484679748188 65.12798986467533,148.19456643922604 64.704601558391,147.8110014932172 64.24864492099732,147.04386969916231 64.54175990214571,145.56439407693688 64.57432823337149,140.13956942019286 64.41148657724261,138.44086087669712 64.50919157091994,137.83809033961734 65.12798986467533,137.61890066508204 67.21236306452192,137.39971078357485 68.90591628942639,137.07092557298893 70.11094454559498,136.63254456770665 72.19531774544157,135.64618427726964 74.14941762026865,134.1666359797382 76.75488412019331,131.8102988433966 79.94658058241475,129.5087371434929 81.54242881352548,128.1387491022324 82.2589321010746,127.64555142697645 83.3011187009979,126.38515260553686 84.53871528839227,125.2891480649414 83.43139202601742,126.33035250147805 82.16122710728087,127.3167523946031 81.60756547609344,128.02914970934216 80.89106218866073,128.5771461554832 80.6305155386217,128.6867452894221 76.85258911387064,129.39913839798828 76.49433747015428,129.5087371434929 76.1686541576637,129.72793447962613 75.25674088275991,129.8375330698036 74.40996427030768,129.78273378116137 72.97695769544225,129.89233234562562 71.96733942674473,129.78273378116137 71.34854113298934,129.94713160849642 70.82744783302769,129.89233234562562 70.14351287682075,130.0019308583578 69.65498790808488,130.22112772824767 69.23159960191697,130.2759269135131 65.9096298145596,130.11152931927063 64.80230655218475,129.78273378116137 62.97848000226077,129.5087371434929 62.229408383602276,129.12514130727504 61.8711567397695,128.74154483689927 61.64317842107266,128.41274735760817 61.70831508352421,127.9195502649236 61.512905096053146,127.37155226565665 61.12208512111101,126.65915293186845 61.25235844613053,126.49475277485908 63.30416331475135,125.2891480649414 64.90001154586207,124.90554525259358 66.82154308957979,123.75473301047168 67.6683197019156,122.98752167796192 69.00362128310371,120.68587245899835 69.10132627689745,120.1926589415234 68.97105295187794,119.80904770313646 68.25454966444522,119.26103054797568 66.62613310199231,118.71301209856756 66.17017646459863,118.38420040762867 65.7467881583143,117.78137776376389 65.42110484582372,117.5073669534031 65.09542153333314,117.34296031195845 64.63946489593945,117.34296031195845 63.239026652183384,118.16499235460651 62.3271133772796,118.82261589200061 61.512905096053146,119.64464269240852 60.92667513363995,120.57626954583975 60.600991821149364,120.850276731755 59.68907854624558,120.74067389614356 59.298258571187034,120.4666665806435 58.22350364003796,119.1514269617328 57.409295358811505,119.04182332343771 57.05104371509515,119.04182332343771 55.71574213390704,119.64464269240852 54.543282209080644,120.4666665806435 54.05475724034477,121.12428359428304 53.5662322716089,122.1107056200126 53.240548959118314,123.15192431987089 53.27311729034409,124.74114385321445 52.58918233413715,126.2207522545068 52.6543189965887,126.43995269676088 52.882297315401956,126.60435289240559 53.501095609157346,126.54955284002062 54.41300888394471,126.33035250147805 56.073993777739815,126.05635178687226 57.441863690153696,125.61794997073594 58.94000692747068,125.2891480649414 59.9496251961682,125.23434770203312 60.4055818336783,125.67275024316041 60.73126514616888,126.43995269676088 60.37301350245252,126.93315293433261 58.41891362750903,127.75515100109624 54.706123865325935,129.61833583751286 53.240548959118314,130.05673009519523 52.32863568409812,130.49512352477177 52.45890900911763,131.0979131378408 56.62765540892724,135.42699253221508 58.38634529628325,137.07092557298893 59.233121908735484,138.00248245950206 57.70241034007631,138.8792384655535" stroke="#4dd2ff" stroke-linecap="round" stroke-linejoin="round" stroke-width="0.5"><title>2022-09-04 10.0km</title></polyline><polyline fill="none" points="129.56943777028937,144.67190936415864 129.63863527146168,145.19476825254242 129.65593464678386,146.00809989697154 129.67323402210604,146.56000045961264 129.63863527146168,147.11189855356497 129.7078327726922,147.60570001883752 129.72513214795617,148.09949950797454 129.69053339737002,148.5642501630573 129.75973089860054,149.02899906769744 129.7770302738645,149.2904195572628 129.69053339737002,150.65560644859215 129.60403652087552,151.17843998147873 129.6213358961977,151.75936353080033 129.56943777028937,152.77597316097672 129.60403652087552,155.91288722262107 129.69053339737002,156.40665346802416 129.65593464678386,156.95850752173283 129.74243152327836,157.8588956791791 129.7078327726922,158.32360957704077 129.51753964438103,158.64309936656355 129.51753964438103,158.70118833027664 129.74243152327836,159.36920944802114 129.72513214795617,159.74678500187292 129.206150888931,162.44786872936675 129.10235463717254,163.31917344829708 128.94666025944753,163.98716956623684 128.8947621335974,164.59707590720063 128.42767900048057,166.6010326599644 128.37578087457223,167.00762860938994 128.22008649684722,167.55943525500334 128.08169149444439,168.1983661830527 128.02979336853605,168.72112539077352 127.87409899081104,169.56334390067786 127.85679961554706,169.99897190883348 127.99519461794989,170.69597352320852 128.04709274385823,171.13159753300715 128.04709274385823,171.82859275006922 127.80490148963872,171.71242715392145 126.61124459392158,171.857634131964 125.97116770781577,171.62530288512062 125.15809706872096,171.82859275006922 124.08553580008447,171.91571687532996 123.27246516093146,172.1190062618698 122.35559827001998,172.23517147525854 121.40413262852235,172.20613018221775 119.58769822196336,172.5546252481945 118.44593945215456,172.40941909030516 117.47717443533475,172.3803778382644 117.01009130221792,172.23517147525854 116.62950504565379,172.23517147525854 115.53964440169511,172.002840939218 115.00336376740597,171.82859275006922 114.0,171.18968061814667 114.01729937526397,171.16063907896023 114.05189812590834,171.16063907896023 115.48774627578678,171.857634131964 115.93753003363963,172.002840939218 116.52570879383711,172.03188228011277 117.01009130221792,171.94475823675748 118.68813070637407,172.20613018221775 119.53580009605503,172.1770888822357 120.34887073520804,172.23517147525854 123.44545891397865,171.91571687532996 123.6530514175538,171.88667550711398 123.73954829404829,171.82859275006922 124.98510331567377,171.59626144853246 125.74627582891844,171.50913709758606 126.16146083606873,171.56722000500304 126.4382508409326,171.45105416284787 127.19942335411906,171.33488821131323 128.22008649684722,171.36392970939778 129.67323402210604,171.18968061814667 130.17491590580903,170.9863897006653 130.64199903892586,170.87022331168555 131.19557904847898,170.6669318679269 132.5795290725655,170.2893897266258 132.8217203267268,170.14418090319668 134.01537722244393,169.67951151990565 134.74195098504424,169.2729243742142 135.07063911581645,169.24388238394022 135.2782316193916,169.2729243742142 135.48582412296673,169.21484038681956 136.80057664582273,168.77920961041673 137.85583853913704,168.31453508728737 138.11532916867873,168.1112394331285 138.47861604992067,168.05315489893837 139.32628543965984,167.79177415707818 139.516578567971,167.79177415707818 140.71023546368815,167.50135046119976 141.0735223449883,167.26901101222757 141.43680922628846,167.15284112376685 141.7308986064163,167.00762860938994 142.12878423830261,166.9785860859629 142.50937049492495,166.86241592402803 142.7861604997306,166.80433080215153 143.18404613167513,166.8333733664913 144.13551177317277,166.63007527218724 144.65449303213973,166.5719900408585 145.76165305142058,166.22347807873302 146.38443056220422,166.07826447058324 146.71311869291821,166.10730720586434 147.90677558863536,165.90400791531283 149.03123498312198,165.93305069166672 150.1556943776668,165.81687954551307 150.36328688130016,165.84592234229785 151.28015377221163,165.7878367418307 151.60884190292563,165.84592234229785 153.01009130227612,165.7878367418307 153.0273906775401,165.6135797764291 153.1830850552069,165.70070828985627 153.71936568955425,165.81687954551307 154.72272945696022,165.64262262103875 157.81931763573084,165.55549406668433 160.3969245554763,165.55549406668433 161.6251802018378,165.4102796724692 162.09226333489642,165.3231509538964 162.61124459392158,165.38123677316617 163.2513214800274,165.3231509538964 163.64920711197192,165.3231509538964 165.03315713594202,165.23602217396547 166.62469966360368,165.00367845973233 167.19557904853718,164.97463546472864 167.69726093224017,165.03272144789662 168.11244593939045,165.00367845973233 168.63142719841562,164.8875064385429 169.40989908692427,164.8875064385429 170.48246035556076,164.8003773509481 170.96684286399977,164.8294203869591 171.48582412302494,164.8003773509481 172.31619413738372,164.68420513837918 173.59634790965356,164.74229125825514 173.76934166264255,164.94559246282006 173.94233541568974,164.97463546472864 174.7900048053707,164.8294203869591 175.29168668907369,164.8294203869591 176.51994233537698,164.5680328164235 177.50600672751898,164.45186038517568 178.00768861122197,164.48090350323037 180.32580490148393,164.30664469221665 182.4709274386987,164.19047201488866 183.5434887073352,164.04525601429486 184.685247477144,164.13238563510822 185.70591061987216,163.98716956623684 186.0,164.01621279370738 185.96540124935564,164.10334243509715 185.30802498798585,164.219515194447 184.4430562229827,164.2776015331401 183.92407496395754,164.2485583671878 183.42239308025455,164.36473098990973 179.78952426713658,164.71324820171867 176.39884670829633,164.858463416218 174.75540605478454,165.03272144789662 174.0634310427704,165.03272144789662 173.94233541568974,164.94559246282006 173.11196540121455,164.97463546472864 172.62758289283374,164.9165494540648 171.90100913023343,165.03272144789662 169.6347909658798,165.11985037146223 168.70062469964614,165.29410803407518 167.12638154730666,165.4102796724692 162.57664584333543,165.38123677316617 160.44882268138463,165.67166545891087 156.02018260449404,165.8749651322214 154.9130225852714,165.96209346113756 153.16578567994293,166.16539265600295 152.81979817390675,166.1363499343206 152.2835175396176,165.81687954551307 152.16242191253696,165.81687954551307 152.00672753481194,165.84592234229785 151.81643440650078,165.96209346113756 151.00336376740597,166.1363499343206 149.5848149927333,166.19443537072948 149.06583373376634,166.25252077980986 146.69581931759603,166.3977341828504 144.49879865447292,166.7172030679576 143.40893801051425,167.00762860938994 142.8726573762251,167.0366711259121 142.2325804901193,167.18188360619388 141.99038923589978,167.00762860938994 141.92119173472747,166.74624565281556 141.92119173472747,166.25252077980986 141.88659298414132,166.1363499343206 141.86929360881913,165.96209346113756 141.86929360881913,165.64262262103875 141.9038923594053,165.3521938669437 141.88659298414132,164.8003773509481 141.83469485823298,164.68420513837918 141.74819798173849,163.55152033424383 141.66170110518578,163.17395642234624 141.67900048050797,162.21551976523915 141.6444017299218,162.01221406276454 141.54060547810514,159.8339176579393 141.69629985583015,158.87545505750313 141.69629985583015,157.77176162850083 141.62710235459963,157.24895603220648 141.60980297927745,156.00002258602035 141.43680922628846,155.7676614803131 140.90052859199932,155.73861631139152 140.1047573281685,155.82575179777632 139.62037481978768,155.79670664249716 139.3608841903042,155.65148076340847 139.29168668907369,155.24484739275067 139.1186929360265,153.82162004247948 139.1186929360265,151.55604059966572 139.08409418544034,151.1203474761278 138.9629985583597,150.6846528141541 138.98029793368187,150.307049529285 138.92839980777353,149.78421230411914 138.859202306543,149.40660626366298 138.91110043245135,148.99995231242065 138.859202306543,148.5642501630573 138.8765016818652,148.01235856529092 138.859202306543,147.86712352400355 138.84190293127904,147.2571344838725 138.859202306543,146.70523703945946 138.75540605478454,145.54333961375232 138.7035079288762,144.20714404794853 138.6343104276457,143.85856891184812 138.66890917823184,143.42284860679501 138.80730418069288,143.27760816329828 138.99759730894584,143.13236754867103 139.1186929360265,142.87093401171296 139.3608841903042,142.60949992068345 139.58577606914332,142.52235510060564 139.74147044686833,142.3771135969655 140.1047573281685,142.17377520469017 141.36761172511615,142.49330681358697 141.8173954829108,142.49330681358697 141.99038923589978,142.4642585196707 142.8034598749946,142.1156784597115 143.68572801537812,141.62185502224747 144.1009130225284,141.44756392535055 144.56799615564523,141.36041828462476 145.45026429597056,141.50566098507988 146.92071119649336,142.1156784597115 147.33589620376006,142.17377520469017 148.35655934643,142.23187192241312 148.91013935604133,141.91233963661216 149.32532436324982,141.44756392535055 149.5848149927333,140.9246891576404 149.671311869286,140.14037285122322 149.60211436805548,139.79178622573818 149.46371936565265,139.4431986155032 149.22152811149135,139.0365118253976 148.96203748194966,138.3974298755711 148.7717443536385,138.16503561839636 148.6160499759717,138.07788765919395 148.56415185006335,137.93264092366735 148.06246996636037,137.67119636882853 147.57808745792136,137.32260276732268 147.33589620376006,137.06115691982268 147.11100432480453,137.03210734696768 146.36713118688203,136.77066088392894 145.60595867369557,136.01536798964662 145.55406054778723,135.928218512061 145.5021624218789,135.63771980875026 145.39836617006222,135.26007047182793 145.39836617006222,134.7371694816611 145.45026429597056,134.21426627543406 145.48486304661492,133.60420973374858 145.95194617967354,132.5293408685102 146.05574243149022,132.0064283049578 145.86544930317905,131.94832677220984 145.06967803940643,132.29693555836275 144.48149927915074,132.4712395820825 143.5473330129753,132.4712395820825 142.50937049492495,132.38408760096354 142.11148486303864,132.23883416243189 141.45410860161064,131.86117442179238 141.3157135992078,131.80307282062859 140.60643921192968,131.28015717895323 140.36424795765197,131.04774951565923 140.173954829399,130.75723932097753 139.79336857277667,130.37957504526275 139.48197981738485,130.35052389919292 139.32628543965984,130.40862618433312 139.2743873137515,130.4957795608716 139.30898606439587,130.7281882639145 139.41278231621254,131.10585147258826 139.4473810667987,131.57066614234645 139.46468044206267,132.38408760096354 139.43008169147652,132.84889745531837 139.48197981738485,133.28465510328533 139.49927919264883,133.8075622494216 139.48197981738485,134.15616578232584 139.516578567971,134.3304671794176 139.4473810667987,134.6790692348368 139.58577606914332,135.34722042139038 139.56847669387935,136.71256159465702 139.70687169628218,137.93264092366735 139.81066794804065,139.41414960347174 139.89716482459335,139.9079818769169 139.81066794804065,140.86659182436415 139.86256607394898,141.44756392535055 139.82796732336283,141.53470950460905 139.845266698685,141.97043647733517 140.5891398366075,142.40616191140725 140.84863046609098,142.4642585196707 141.21191734739114,142.6385481803227 141.92119173472747,142.60949992068345 142.28447861602763,142.52235510060564 142.8899567515473,142.28996861283667 143.2013455069391,142.02853329078062 143.4435367611586,141.59280652316374 143.47813551174477,141.21517541326466 143.3743392599281,140.83754314744874 142.90725612681126,139.73368835909787 142.40557424310828,138.8331679276962 142.0595867371303,138.513626839871 141.55790485342732,138.16503561839636 140.95242671790766,137.5549986110709 140.57184046128532,136.85780976653768 140.22585295530735,135.78296924589813 140.24315233057132,135.28912046190817 140.29505045647966,134.9405201300615 140.39884670829633,134.5628686591226 140.46804420946864,134.21426627543406 140.88322921667714,133.40085688279942 141.19461797212716,132.965099645211 141.3157135992078,132.84889745531837 141.62710235459963,132.73269515581342 142.61316674674163,132.20978345414187 142.66506487264996,132.18073273910704 142.7169629985001,132.03547906106542 142.69966362323612,131.9773775420399 142.00768861122197,131.86117442179238 141.62710235459963,131.6868695362864 140.9178279672633,131.30920810609678 140.53724171069916,130.98964753143082 140.31234983180184,130.7281882639145 139.70687169628218,129.94380713667488 139.22248918784317,129.1594210226467 139.1186929360265,128.81080337119056 139.04949543485418,128.28787504710635 138.98029793368187,127.4453747518055 138.9629985583597,127.5325302215424 139.01489668426802,127.76494450658356 139.187890437257,128.28787504710635 139.34358481498202,128.83985487982136 139.37818356556818,129.13036958927842 139.39548294089036,130.089063277097 139.48197981738485,130.64103505155072 139.43008169147652,131.07680049754708 139.516578567971,132.09358055284247 139.56847669387935,133.72041121227085 139.48197981738485,134.7371694816611 139.65497357037384,136.4220647380571 139.63767419505166,136.6835119397947" stroke="#4dd2ff" stroke-linecap="round" stroke-linejoin="round" stroke-width="0.5"><title>2022-08-08 10.1km</title></polyline><polyline fill="none" points="31.45984112971928,216.7166846668406 31.45984112971928,217.22353610085702 31.428067078522872,218.05049936297291 31.57105030893581,219.57102896548895 31.539276257681195,221.06486274032795 31.602824360132217,221.78509698823473 31.539276257681195,222.0251740536114 31.618711385701317,222.18522514789947 31.634598411270417,222.47865156699118 31.602824360132217,222.98547722850344 31.523389232112095,223.35892626542773 31.507502206542995,223.57232516246586 31.539276257681195,224.3992420927898 31.523389232112095,224.95940819779207 31.539276257681195,226.02638359439152 31.58693733450491,226.4798450957751 31.491615180915687,227.2000449269981 31.475728155346587,227.92024018106167 31.507502206542995,228.4803888808092 31.618711385701317,229.04053481168376 31.698146513663232,229.68069819953234 31.618711385701317,230.21416492680873 31.58693733450491,230.50757055634313 31.682259488094132,230.80097542611475 31.555163283308502,231.7612042342662 31.475728155346587,232.24131558703812 31.428067078522872,232.37467949075653 31.428067078522872,232.77477026005363 31.348631950560957,233.2015321904546 31.348631950560957,233.36156750000373 31.078552515420597,234.50848060448334 30.919682259496767,234.93523600581102 30.856134157103952,235.38866185879306 30.776699029142037,235.73539805167093 30.729037952318322,236.32217996129475 30.570167696394492,237.33570519405475 30.300088261254132,238.5092494024284 30.1571050308994,239.30938621307723 29.950573698151857,240.0828464267397 29.839364518935326,241.06966731088323 29.966460723720957,241.41638612208772 30.03000882611377,241.76310387246485 29.998234774917364,242.16316149716295 30.03000882611377,242.4031953941667 30.01412180054467,242.509876962853 29.93468667252455,242.53654733933945 29.47396293026395,242.42986579574062 29.172109443927184,242.42986579574062 28.854368932021316,242.509876962853 28.63195057370467,242.4832065801238 28.37775816419162,242.32318415161717 28.203000882582273,242.34985457203584 27.78993821714539,242.509876962853 26.70962047658395,242.64322878258827 25.72462488966994,242.8299210665864 24.406001765222754,242.96327250979084 22.022947925841436,243.28331533316668 20.609002647863235,243.04328330031422 20.529567519843113,242.98994277955353 19.369814651377965,242.88326166268962 18.89320388349006,242.8299210665864 18.511915269191377,242.69656946654868 18.114739629265387,242.4832065801238 16.335392762557603,241.41638612208772 15.65225066198036,241.2296915094048 15.048543689306825,240.82963058941095 14.0,240.18953017979948 14.111209179158323,240.21620110234653 14.54015887028072,240.42956825708825 15.493380405998323,240.98965512689756 15.684024713176768,241.1763501350215 16.065313327417243,241.2296915094048 16.700794351287186,241.44305675590294 17.17740511917509,241.8164449706819 17.92409532214515,242.29651372486842 18.368932038836647,242.53654733933945 18.75022065313533,242.66989912774443 20.529567519843113,242.90993195136252 20.624889673432335,242.8565913678176 21.212709620478563,242.936602233749 21.8323036187212,242.8565913678176 22.054721977037843,242.8565913678176 22.483671668102033,242.8299210665864 23.309796999092214,242.90993195136252 24.6125330979703,242.66989912774443 24.930273609876167,242.53654733933945 25.518093556922395,242.4832065801238 25.740511915297247,242.509876962853 26.042365401575807,242.42986579574062 26.56663724622922,242.42986579574062 26.947925860527903,242.26984329191328 27.488084730808623,242.26984329191328 27.80582524271449,242.16316149716295 28.838481906452216,241.97646811473533 29.664607237442397,242.00313861673203 30.141218005272094,242.29651372486842 30.6337157987291,242.00313861673203 31.285083848168142,241.89645657099027 31.555163283308502,241.78977442473115 31.904677846410777,241.73643331397034 32.71491615183186,241.3363741829162 33.63636363635305,241.01632586114283 33.82700794347329,240.85630136129475 34.22418358339928,240.69627663557185 34.748455428052694,240.61626418797096 35.558693733415566,240.3228847299324 35.95586937334156,240.10951737438882 36.38481906440575,240.10951737438882 36.92497793468647,239.97616257311893 39.65754633717006,238.6959484969484 39.95939982350683,238.6159346369459 40.13415710499976,238.5092494024284 40.37246248894371,238.5092494024284 40.51544571929844,238.37589271806792 40.83318623120431,238.40256406748085 40.92850838479353,238.48257807814662 41.436893203877844,238.29587863216148 42.05648720212048,238.00249316699046 42.35834068845725,238.00249316699046 42.80317740509054,237.7891214424817 43.5657546336879,237.84246441126743 44.13768755516503,237.5757493163328 44.53486319503281,237.4423915334337 45.44042365398491,237.41571995800768 46.23477493377868,237.1756754967646 47.09267431596527,237.04231724311103 48.50661959400168,236.98897389762715 48.93556928506587,236.8822871315133 49.31685789936455,236.93563052717218 49.650485436897725,236.82894371075236 50.84201235655928,236.90895883250778 51.77934686670778,236.72225679390976 53.38393645192264,236.69558504903398 53.844660194183234,236.74892853249912 54.36893203883665,236.64224154032127 55.46513680496719,236.56222623038775 57.57811120914994,236.50888265896356 58.3406884377473,236.53555444777885 58.80141218006611,236.48221086379635 59.61165048542898,236.45553906236455 60.56487202120479,236.37552362059796 61.27978817297844,236.18882070315158 61.676963812846225,236.29550812220987 62.058252427203115,236.34885179404955 62.9320388349588,236.26883627681673 63.027360988548025,236.21549256735307 63.34510150045389,236.13547695602756 64.07590467785485,236.13547695602756 64.44130626652623,236.10880507298134 64.80670785525581,236.00211747816502 65.56928508385317,235.94877364316926 66.03000882611377,236.08213318365597 66.6496028243564,236.05546128811693 66.79258605471114,235.97544556380308 67.38040600175736,236.08213318365597 67.58693733450491,236.00211747816502 68.84201235655928,236.00211747816502 69.31862312444719,235.94877364316926 69.63636363635305,235.94877364316926 70.3036187113612,235.9221017161035 70.68490732571809,235.8154139455728 71.55869373341557,235.78874198726407 71.7016769638285,235.8154139455728 71.81288614298683,235.9221017161035 72.01941747573437,235.94877364316926 72.27360988524742,235.86875784343283 73.11562224186491,235.8154139455728 74.03706972638611,235.65538210141676 74.4819064430776,235.68205409112124 76.81729920563521,235.57536609455565 77.99293909972766,235.60203810313396 79.13680494262371,235.38866185879306 79.5339805825497,235.33531773508003 80.28067078551976,235.361989800047 81.09090909094084,235.20195731550484 81.80582524271449,235.33531773508003 82.88614298321772,235.30864566372475 83.45807590469485,235.255301502184 83.7122683142079,235.33531773508003 84.03000882611377,235.33531773508003 84.34774933801964,235.255301502184 84.80847308033844,235.20195731550484 85.57105030893581,235.54869407967635 85.72992056485964,235.5220220585834 85.88879082084168,235.41533391140547 85.90467784641078,235.361989800047 85.90467784641078,235.255301502184 85.84112974401796,234.96190816506714 85.49161518091569,234.90856384034123 85.34863195056096,234.90856384034123 85.61871138570132,234.90856384034123 86.0,234.96190816506714 86.0,235.20195731550484 85.80935569287976,235.46867799751635 85.39629302738467,235.5220220585834 84.91968225949677,235.33531773508003 83.6646072374424,235.44200595758593 82.7749338040594,235.361989800047 82.61606354813557,235.41533391140547 82.13945278024767,235.41533391140547 81.09090909094084,235.33531773508003 79.96293027361389,235.5220220585834 79.0414827890927,235.57536609455565 77.96116504853126,235.7087260745393 73.86231244483497,235.89542978289683 73.44924977933988,235.94877364316926 73.19505736982683,236.02878938632057 72.11473962926539,236.08213318365597 71.73345101502491,236.21549256735307 71.41571050306084,236.21549256735307 70.90732568403473,236.10880507298134 70.39894086495042,236.08213318365597 69.58870255958755,236.26883627681673 68.54015887028072,236.16214883272187 67.84112974401796,236.32217996129475 67.20564872020623,236.29550812220987 66.82436010590754,236.34885179404955 65.99823477491736,236.29550812220987 64.88614298321772,236.34885179404955 63.329214474826586,236.37552362059796 62.29655781114707,236.45553906236455 62.09002647839952,236.42886725470453 61.77228596643545,236.45553906236455 61.43865842896048,236.37552362059796 61.26390114740934,236.37552362059796 60.77140335389413,236.48221086379635 60.263018534868024,236.50888265896356 58.706090026476886,236.6689132978936 55.02030008827569,236.85561542430514 53.63812886143569,236.98897389762715 52.843777581641916,236.93563052717218 52.51015004410874,236.9623022155356 52.303618711361196,236.85561542430514 52.04942630184814,236.90895883250778 51.8428949691006,236.85561542430514 51.28684907325078,236.8822871315133 50.4607237422606,237.04231724311103 49.80935569287976,237.01564557352685 48.665489849983715,237.0956605634492 47.17210944398539,237.1223322141741 45.742277140321676,237.30903359357762 45.36098852602299,237.41571995800768 44.217122683126945,237.4957346653755 42.78729037952144,237.92247881742514 41.94527802296216,238.2425358767432 40.992056487186346,238.4559067475784 40.62665489851497,238.7492910388246 40.07060900266515,238.88264728383365 37.56045895855641,239.73612353552744 36.6231244483497,240.21620110234653 35.860547219752334,240.376226506065 34.97087378636934,240.6696058259331 34.54192409530515,240.88297212700854 33.8587819946697,241.1230087355143 33.00088261254132,241.38971548192785 32.206531332747545,241.57640983098827 31.618711385701317,241.8164449706819 31.285083848168142,241.78977442473115 30.697263901121914,241.78977442473115 29.48984995583305,242.0564796020626 28.91791703441413,242.26984329191328 28.695498676097486,242.26984329191328 28.282436010602396,242.24317285268626 27.26566637243377,242.45653619102814 27.12268314207904,242.42986579574062 25.788172992062755,242.64322878258827 24.977934686641674,242.69656946654868 23.675198587821797,242.88326166268962 22.69020300084958,242.936602233749 22.07060900266515,242.90993195136252 21.54633715795353,242.936602233749 21.101500441262033,242.8565913678176 20.227714033506345,242.8299210665864 19.782877316873055,242.7765804454757 18.448367166798562,242.4832065801238 18.03530450130347,242.29651372486842 15.969991173886228,241.14967943844385 15.318623124447186,240.9629843863877 14.333627537474968,240.2962138324947 14.127096204727422,240.21620110234653 14.444836716691498,240.2962138324947 14.873786407755688,240.45623912320298 15.747572815511376,240.9629843863877 16.39894086495042,241.44305675590294 16.748455428052694,241.62975101708435 18.289496910874732,242.4031953941667 18.718446601938922,242.56321770959767 19.16328331863042,242.64322878258827 19.957634598365985,242.58988807359128 20.386584289488383,242.64322878258827 20.863195057376288,242.74991012541432 21.308031774067786,242.72323979908833 22.451897616963834,242.88326166268962 23.246248896757606,242.74991012541432 24.02471315092407,242.509876962853 24.278905560437124,242.56321770959767 24.6284201235394,242.4832065801238 25.629302736080717,242.42986579574062 26.312444836716168,242.4832065801238 26.804942630173173,242.34985457203584 27.186231244471855,242.37652498621173 27.599293909966946,242.2165024071728 27.917034421872813,242.2165024071728 28.7749338040594,242.0564796020626 29.680494263011497,241.97646811473533 30.03000882611377,241.89645657099027 30.300088261254132,241.94979760645947 30.681376875552814,241.8431155104263 31.380406001757365,241.73643331397034 32.619593998242635,241.4697273834463 33.00088261254132,241.2296915094048 33.65225066198036,241.06966731088323 33.81112091790419,241.06966731088323 34.303618711361196,240.88297212700854 34.65313327446347,240.69627663557185 35.304501323902514,240.53625168381404 35.558693733415566,240.42956825708825 35.87643424537964,240.16285925095872 36.06707855249988,240.0561754727387 36.36893203883665,240.0828464267397 36.76610767876264,240.00283354596468 37.40158870257437,239.62943935548537 37.925860547227785,239.4160706944167 38.84730803174898,239.12268812925322 39.165048543713056,238.935989737809 39.43512797879521,238.90931851396454 40.03883495146874,238.58926333770796 40.547219770553056,238.37589271806792 41.691085613449104,238.21586448965536 41.992939099727664,238.13585029073874 42.34245366282994,237.94915027353272 42.46954986761557,237.7624499487065 42.406001765222754,236.74892853249912 42.421888790791854,236.34885179404955 42.390114739653654,235.89542978289683 42.37422771402635,234.98858031803684 42.32656663726084,234.58849736467528 42.04060017655138,234.4551360663463 40.89673433365533,234.5618251175256 40.48367166810203,234.4818083385544 40.37246248894371,234.1083959561729 40.420123565767426,233.0948418585249 40.3406884377473,232.21464278749045 40.3406884377473,231.70785840275494 40.277140335412696,231.38778288680624 40.24536628415808,231.01436030882178 40.150044130627066,230.72095599154272 39.70520741393557,230.66760967038135 38.95851721096551,230.6942828341198 38.02118270081701,230.58759014161478 37.9894086496206,230.56091695275973 37.909973521658685,230.21416492680873 37.86231244483497,229.8407384813545 37.782877316873055,227.46678444370627 37.67166813771473,226.95997882517258 37.63989408646012,226.90663073345786 37.41747572814347,226.85328261662653 36.6231244483497,226.90663073345786 35.844660194183234,227.1200229495953 35.89232127094874,227.92024018106167 35.87643424537964,228.42704150496138 35.95586937334156,229.09388189885794 35.93998234777246,230.10747178216843 35.89232127094874,230.18749165004556 35.66990291257389,230.34753121620452 34.90732568403473,230.37420445523458 34.63724624889437,230.34753121620452 34.20829655783018,230.37420445523458 32.58781994704623,230.29418471919053 32.03177405119641,230.34753121620452 31.761694616056047,230.13414507777634 31.777581641625147,229.6540247972007 31.698146513663232,228.2936729552166 31.698146513663232,227.8668925414313 31.555163283308502,227.1733709408436 31.507502206542995,226.4798450957751 31.507502206542995,225.49289715191117 31.539276257681195,225.11945514770923 31.539276257681195,224.61263903074723 31.491615180915687,223.78572365768196 31.507502206542995,222.82542726452812 31.475728155346587,222.42530136549613 31.491615180915687,221.65172062111378" stroke="#4dd2ff" stroke-linecap="round" stroke-linejoin="round" stroke-width="0.5"><title>2022-07-25 10.7km</title></polyline><polyline fill="none" points="127.64903565868735,253.4896410696383 128.08728986117058,259.0089541017078 128.52554406411946,260.4807610347052 130.05943377362564,261.3393131586199 132.61591662326828,262.3205138533085 136.48716208105907,263.3017127001076 138.1671365252696,263.05641316165566 139.99319570348598,262.44316381032695 141.67317014723085,260.9713624214928 143.13401748985052,259.3769062249048 147.66264425194822,258.27304907579673 149.34261869592592,258.27304907579673 153.06777941947803,259.25425554593676 155.18600806617178,259.49955687497277 159.05725352396257,261.3393131586199 161.54069400648586,261.46196334643173 163.58588028606027,261.2166629419371 164.38934632437304,261.0940126964124 165.92323603411205,260.1128096911416 167.23799864249304,258.88630333638866 168.47971888352185,257.1691895884578 169.50231202342547,254.59350835400983 169.13710018782876,250.9139416431426 168.11450704792514,247.6023093824042 166.65365970530547,244.78127270372352 165.55802419851534,243.43207584848278 162.05199057632126,240.9789817048586 158.54595695412718,239.87508557157707 154.74775386345573,238.15790915937396 152.84865231812,235.70479017987964 151.82605917821638,231.53446140367305 152.7025675836485,223.316362863814 153.14082178659737,221.2311530613224 154.09037255938165,219.6365752274287 154.30949966073968,218.40997357218293 153.79820309067145,218.40997357218293 150.8765084054321,219.6365752274287 146.42092401068658,220.7405142474163 142.69576328713447,220.372534833994 136.92541628400795,221.72179141273955 135.6836960427463,222.33508870220976 134.44197580148466,223.5616811151558 133.2732979275752,225.52422296913574 132.90808609197848,225.76954018103424 132.3237471547909,226.75080787297338 132.3237471547909,227.36409924190957 131.73940821783617,228.83599558187416 131.4472387493588,231.53446140367305 127.72207802557386,234.84619580805884 127.50295092444867,235.3368213364156 127.86816276004538,238.64853156881873 127.50295092444867,240.9789817048586 128.30641696276143,253.36698900483316 128.08728986117058,254.96146359594422 128.67162879835814,260.1128096911416 129.7672643053811,261.46196334643173 132.90808609197848,262.6884636375762 134.88023000443354,262.93376334922505 138.1671365252696,262.56581373829977 145.1061614023056,258.3956999858492 151.89910154533572,258.27304907579673 154.96688096481375,259.13160483833053 159.71463482826948,261.0940126964124 161.39460927201435,261.0940126964124 163.00154134910554,261.46196334643173 165.9962784012314,260.3581106159254 167.38408337673172,259.3769062249048 169.06405782070942,257.5371430107334 169.64839675766416,256.0653277615784 169.3562272891868,251.64985706467996 168.8449307193514,249.3194546638988 167.38408337673172,245.88515844079666 166.3614902368281,244.6586185884371 165.1928123626858,244.04534757931833 159.56855009379797,240.12039602568257 155.98947410448454,238.64853156881873 154.16341492626816,237.1766629536287 153.06777941947803,235.58213392755715 152.4834404825233,234.2329132471932 152.0451862795744,230.67586015816778 149.78087289864197,226.13751578214578 148.68523739185184,224.78827064024517 145.69050033949316,221.96711041530943 144.01052589528263,221.35381269245408 141.96533961594105,221.10849340088316 138.2401788921561,221.59913186795893 136.48716208105907,222.08976987330243 135.3184842071496,222.9483852700214 132.17766242055222,227.48675742931664 131.30115401512012,230.55320272195968 131.08202691352926,232.63837521104142 131.66636585071683,236.93135111342417 130.05943377362564,237.66728628746932 128.16033222852275,239.3844643170305 127.50295092444867,240.85632669428014 127.21078145573847,244.6586185884371 128.08728986117058,250.0553723377816 128.23337459540926,255.6973732994229 129.03684063395485,260.4807610347052 129.9133490396198,261.82991373710684 133.56546739605255,263.4243624259834 135.3184842071496,263.3017127001076 139.84711096901447,261.82991373710684 141.81925488146953,260.3581106159254 143.7183564270381,259.7448580879718 147.58960188482888,258.76365254219854 149.34261869592592,258.76365254219854 153.8712454577908,259.7448580879718 156.86598251014948,261.7072636356752 158.9111687897239,262.44316381032695 163.22066845023073,262.44316381032695 165.9962784012314,260.7260617860011 167.23799864249304,260.1128096911416 168.11450704792514,259.13160483833053 169.13710018782876,257.0465383899864 169.50231202342547,253.24433691130253 169.06405782070942,250.5459835428046 166.72670207265764,246.25311983321444 163.73196502029896,243.30942141549895 156.50077067455277,239.75243030147976 155.11296569905244,238.52587600974948 152.84865231812,235.3368213364156 152.0451862795744,233.49697322174325 151.24172024126165,229.5719421923859 149.34261869592592,225.2789056416368 146.71309347916394,222.58040741589502 144.66790719958954,221.47647229465656 140.50449227332138,220.8631739942939 138.60539072775282,221.2311530613224 136.77933154953644,221.72179141273955 135.1723994729109,223.1937036945601 133.2732979275752,226.0148572770995 132.10462005343288,229.203969016904 131.22811164776795,233.74228667889838 133.05417082621716,240.12039602568257 133.85763686452992,241.59225632360904 136.12195024546236,244.6586185884371 137.5097552209627,245.76250458532013 139.4088567662984,246.49842728386284 140.43144990620203,247.6023093824042 142.47663618577644,251.03659428545507 143.13401748985052,252.63107600907097 144.81399193382822,255.942676303006 145.32528850366361,258.27304907579673 146.2748392764479,259.49955687497277 147.58960188482888,260.1128096911416 150.94955077278428,259.7448580879718 155.11296569905244,260.4807610347052 158.2537874856498,261.9525638096675 160.37201613234356,262.3205138533085 162.4902447790373,262.1978638676228 164.02413448877633,261.7072636356752 164.90064289444126,260.9713624214928 166.65365970530547,260.3581106159254 168.8449307193514,258.0277471698064 169.57535439054482,255.2067669457756 169.50231202342547,252.26311912151868 168.62580361776054,249.93271946438472 166.58061733841896,246.62108096576412 161.39460927201435,242.3281849133491 159.71463482826948,241.34694656234933 158.10770275141113,241.46960145776393 157.45032144710422,240.9789817048586 154.82079623057507,238.77118709887145 153.3599488879554,236.5633831366431 152.1912710138131,233.74228667889838 152.11822864692658,230.79851756576682 153.06777941947803,224.91092943379772 153.79820309067145,222.33508870220976 154.74775386345573,220.24987497157417 154.45558439497836,219.26859503387823 150.0,220.7405142474163 145.90962744085118,221.2311530613224 136.04890787834302,218.65529413419426 133.93067923164926,217.55135069516837 128.45250169700012,211.90893658119603 125.45776464464143,207.00243984741974 125.01951044192538,203.69052842722158 125.01951044192538,194.0 124.65429860632867,194.12266604386969 124.58125623920932,194.73599582660245 125.96906121447682,199.39727858061087 127.35686618997715,208.3517310563475 127.64903565868735,213.01289197790902 127.72207802557386,223.07104449681356 127.13773908861913,226.75080787297338 128.01424749428406,232.515718236682 127.79512039292604,233.9876000211225 128.08728986117058,237.0540070477582 127.79512039292604,238.52587600974948 127.94120512693189,242.20553022040986 128.37945932988077,243.92269329115516 128.74467116547748,247.9702695622982 128.9637982668355,254.83881187738734 129.25596773531288,256.3106305919937 129.1098830010742,259.6222074959078 129.62117957114242,261.5846135056054 130.6437727108132,263.4243624259834 130.6437727108132,265.1414555569063 131.00898454640992,266.0 136.41411971393973,265.5094033484929 139.77406860189512,265.01880623507896 142.18446671706624,265.1414555569063 144.81399193382822,264.5282086599618 147.44351715035737,264.6508580969821 151.60693207685836,264.03761062255944 153.65211835643277,264.5282086599618 161.10243980353698,263.4243624259834 164.09717685589567,263.6696617914713 165.9962784012314,263.4243624259834 167.89537994679995,263.7923114305013 169.50231202342547,263.4243624259834 171.10924410028383,263.6696617914713 173.0813880127389,263.3017127001076 174.2500658868812,262.56581373829977 175.05353192519397,261.0940126964124 175.4187437610235,258.27304907579673 175.12657429254614,251.64985706467996 174.3961506211199,247.6023093824042 174.03093878552318,244.16800183910527 172.49704907578416,239.87508557157707 171.9127101385966,239.6297750020458 169.42926965630613,239.75243030147976 168.99101545359008,239.13915351650212 168.8449307193514,235.8274464030692 169.7214391247835,233.61962996510556 170.23273569485173,225.0335881987412 169.42926965630613,215.58877880469663 168.40667651663534,212.1542602048139 167.74929521232843,211.78627472618246 165.77715129987337,211.54095092916396 164.02413448877633,211.78627472618246 161.10243980353698,212.7675687582523 160.37201613234356,214.36216761841206 159.05725352396257,216.20208331462345 157.66944854846224,217.91933210135903 155.47817753464915,219.6365752274287 153.50603362219408,220.7405142474163 151.75301681109704,221.35381269245408 148.90436449297704,222.33508870220976 147.15134768188,222.33508870220976 143.79139879415743,222.08976987330243 140.0662380703725,221.2311530613224 137.07150101824664,219.759235234058 133.56546739605255,217.67401119260467 132.4698318890296,216.6927264025726 130.7898574450519,215.22079575192765 129.32901010243222,213.62619952010573 129.03684063395485,212.89023038212326 128.08728986117058,212.1542602048139 127.13773908861913,212.1542602048139 126.62644251878373,212.7675687582523 127.4299085570965,214.60749008666608 127.72207802557386,217.91933210135903 127.64903565868735,219.88189521169988 128.01424749428406,221.72179141273955 127.72207802557386,227.60941558732884 128.74467116547748,237.29931883051177 128.45250169700012,241.9602207482385 128.74467116547748,249.3194546638988 129.18292536819354,252.87638045681524 129.18292536819354,256.4332819637202 128.89075589971617,258.1503981373098 129.47509483690374,261.3393131586199 129.98639140673913,262.44316381032695 131.5933234835975,263.05641316165566 133.05417082621716,263.9149610408349 134.66110290284269,264.282909698959 136.9984586511273,263.7923114305013 139.99319570348598,262.56581373829977 141.38100067875348,261.7072636356752 144.9600766680669,260.4807610347052 149.05044922744855,259.9901591857197 150.5112965698354,260.1128096911416 152.77560995100066,260.7260617860011 154.52862676186487,260.7260617860011 156.5738130416721,261.5846135056054 159.34942299267277,263.05641316165566 160.8102703350596,263.05641316165566 162.19807531055994,263.547012123483 163.07458371599205,263.4243624259834 166.28844786970876,261.9525638096675 167.45712574385107,260.9713624214928 168.77188835223205,259.13160483833053 169.50231202342547,257.5371430107334 170.0866509603802,251.52720456637326 168.40667651663534,247.84761619771598 167.09191390825436,245.63985070135095 162.7824142477475,243.18676695384784 161.10243980353698,241.59225632360904 156.50077067455277,239.6297750020458 153.43299125507474,237.0540070477582 152.4834404825233,235.2141649981204 152.41039811517112,232.8836890728271 151.314762608381,228.46802188659785 149.4887034301646,225.4015643200837 147.44351715035737,223.1937036945601 145.7635427066125,221.72179141273955 142.47663618577644,220.8631739942939 139.26277203205973,220.6178544718714 137.8749670565594,220.24987497157417 134.36893343436532,218.16465289451298 130.42464560945518,214.4848288667563 129.18292536819354,212.89023038212326 127.86816276004538,212.1542602048139 126.9186119872611,212.52224542375188 127.28382382285781,217.3060296131007 128.01424749428406,222.7030667293293 127.72207802557386,227.60941558732884 128.16033222852275,230.06257268818445 128.9637982668355,240.73367165509262 129.9133490396198,242.08287549897796 131.88549295207486,242.81880339523195 133.56546739605255,242.57349421217805 134.44197580148466,242.3281849133491 134.66110290284269,241.9602207482385 132.981128458865,240.3657063637802 131.88549295207486,238.2805648049689 130.57073034369387,234.84619580805884 131.37419638200663,230.55320272195968 133.56546739605255,226.38283270507236 136.34107734682038,222.8257260140672 137.58279758808203,221.59913186795893 140.43144990620203,220.8631739942939 142.84184802137315,220.372534833994 145.17920376942493,220.8631739942939 146.93222058052197,221.59913186795893 148.39306792314164,222.45774807344424 150.07304236711934,224.29763517683023 151.314762608381,226.26017425811733 153.79820309067145,231.28914690657984 154.01733019202948,237.29931883051177 153.2138641537167,239.9977408129198 152.26431338093244,241.7149111609906 150.94955077278428,243.67738462722627 149.70783053152263,245.0265808471886 148.17394082178362,246.37577357314876 144.5948648324702,247.84761619771598 140.7236193746794,248.21557620397652 138.82451782934368,247.84761619771598 135.53761130850762,245.2718888753734 132.76200135750696,241.22429163870402 131.22811164776795,237.0540070477582 130.71681507793255,234.11025664865156 131.37419638200663,230.3078877631051 133.200255560223,226.26017425811733 135.1723994729109,223.43902200396406 136.63324681529775,221.96711041530943 138.3862636263948,220.8631739942939 138.5323483608663,220.372534833994 134.73414527019486,218.7779543720826 131.8124505849555,216.32474413022283 128.89075589971617,213.01289197790902 127.35686618997715,212.64490710556856 126.84556962014176,213.01289197790902" stroke="#4dd2ff" stroke-linecap="round" stroke-linejoin="round" stroke-width="0.5"><title>2022-05-08 10.1km</title></polyline></svg>