<?xml version="1.0" encoding="utf-8" ?>
<svg baseProfile="full" height="300mm" version="1.1" viewBox="0,0,200,300" width="200mm" xmlns="http://www.w3.org/2000/svg" xmlns:ev="http://www.w3.org/2001/xml-events" xmlns:xlink="http://www.w3.org/1999/xlink"><defs /><rect fill="#222222" height="300" width="200" x="0" y="0" /><text fill="#FFFFFF" style="font-size:12px; font-family:Arial; font-weight:bold;" x="10" y="20">Over 10km Runs</text><text fill="#FFFFFF" style="font-size:4px; font-family:Arial" x="10" y="280">ATHLETE</text><text fill="#FFFFFF" style="font-size:9px; font-family:Arial" x="10" y="290">Perry</text><text fill="#FFFFFF" style="font-size:4px; font-family:Arial" x="120" y="280">STATISTICS</text><text fill="#FFFFFF" style="font-size:3px; font-family:Arial" x="120" y="285">Number: 7</text><text fill="#FFFFFF" style="font-size:3px; font-family:Arial" x="120" y="290">Weekly: 1.0</text><text fill="#FFFFFF" style="font-size:3px; font-family:Arial" x="141" y="285">Total: 83.9 km</text><text fill="#FFFFFF" style="font-size:3px; font-family:Arial" x="141" y="290">Avg: 12.0 km</text><text fill="#FFFFFF" style="font-size:3px; font-family:Arial" x="167" y="285">Min: 10.0 km</text><text fill="#FFFFFF" style="font-size:3px; font-family:Arial" x="167" y="290">Max: 21.3 km</text><polyline fill="none" points="13.966138429270359,68.67815804004931 14.452974609157536,68.59840251200512 14.642959459830308,68.69809691037153 14.666707566182595,69.13675086869989 14.607337300345534,69.71497306974197 14.832944310532184,70.45269911171272 15.153543746069772,71.03091232804218 15.224788065097528,71.23029528036568 15.4147729157703,71.27017181450356 16.067845840007067,71.29011007456211 17.124636571941664,71.19041872748494 17.397739794803783,71.13060386287543 19.36883262070478,71.13060386287543 19.570691524539143,71.0907272630102 20.21189039561432,71.1106655653166 20.461245512153255,71.05085064442028 20.900585479364963,71.1106655653166 21.233058968064142,71.01097400695653 22.099864849325968,70.9710973508154 22.634197241888614,70.89134398209353 23.192277740774443,70.9511590156435 23.880972824525088,70.9511590156435 24.985259769135155,70.77171378826097 25.626458640181227,70.83152890625934 25.887687809881754,70.81159053827287 27.015722860844107,70.83152890625934 27.538181200245162,70.73183701936068 27.858780635753646,70.73183701936068 28.09626169913099,70.67202183088375 29.248044856416527,70.6520834253788 29.87736967433011,70.73183701936068 29.996110206004232,71.9879462184399 30.16234695035382,73.34372571700078 30.25733937570476,75.17798108138959 30.221717216190882,76.07515673751186 30.281087482027942,76.39415023598121 30.364205854188185,76.47389842287521 30.506694492243696,76.47389842287521 30.566064758080756,76.77295345489256 30.672931236593286,76.83276433462015 30.732301502430346,76.79289041950324 30.732301502430346,76.29446489678594 30.89853824675083,76.23465363690411 31.385374426667113,76.17484233479627 31.88408465971588,75.99540817513844 32.857757019490236,75.9156595376844 33.582074262725655,75.9754710227935 33.914547751424834,75.95553386579559 35.185071440413594,75.77609924145145 35.826270311459666,75.77609924145145 36.18249190651113,75.79603644073359 36.5387135015626,75.9355967041156 36.74057240539696,75.85584801034202 36.89493509658496,75.87578519077942 37.22740858528414,76.07515673751186 38.08234041338437,76.41408728972965 38.83040576297208,76.8726382309469 39.74470785688027,77.33118668942916 40.04155918609467,77.35112352258147 40.231544036767446,77.1716918549937 41.0627277585445,76.55364653464494 42.08389633096522,75.67641317479502 42.345125500665745,75.59666423695671 43.081316797062755,75.55678973986869 43.75813782765181,75.59666423695671 44.88617287861416,75.55678973986869 45.46800148382317,75.5169152240851 46.026081982709,75.41722885229319 46.67915490697487,75.39729156388421 47.13036892734817,75.5169152240851 47.55783484139829,75.39729156388421 48.032796968123876,75.35741697287813 48.99459527473664,75.19791842141785 48.982721221545944,75.13810638717041 48.816484477196354,75.19791842141785 47.89030833009747,75.27766773472467 47.59345700088306,75.35741697287813 47.30847972488846,75.49697795909742 46.44167384359753,76.93244904022504 46.12107440805994,77.67011221524808 46.06170414222288,77.98909970642853 46.21606683341088,78.14859300146054 47.18973919318523,78.80649966878264 48.41276666946942,79.50427388284879 48.768988264520885,79.78338195879405 49.813904943322996,80.42133982137238 51.179421057604486,81.43807523276337 51.32190969566,81.59756203303914 51.879990194545826,82.01621345470994 52.15309341737884,82.11589205960263 53.23363225569483,82.13582776654948 53.96982355209184,82.31524891752997 54.31417109395261,82.2953132528346 55.43033209175337,82.4149271704955 56.16652338815038,82.5544765275663 56.2971379730152,82.65415449893771 56.36838229201385,82.73389679162574 56.41587850468932,83.29209073825405 56.10715312231332,84.66762440396269 56.04778285647626,85.20587062691993 56.26151581350132,85.28561051714132 57.17581790743861,85.34541538561825 58.87380751044839,85.64443909427791 59.09941452063504,85.62450421322501 59.32502153085079,85.6843088423957 59.57437664736062,85.80391797401899 59.82373176389956,85.82385281283496 60.08496093357098,86.00326615129961 60.28681983743445,86.06307051298427 60.5124268476211,86.08300529086046 60.536174953973386,86.06307051298427 60.975514921185095,86.18267910967188 61.28424030353199,86.16274435529704 61.68795811125892,86.2026138594556 61.99668349363492,86.3222222590739 62.49539372668369,86.42189579642218 62.7803710027074,86.66111180753069 62.91098558754311,86.70098107697049 63.219710969919106,86.86045796730104 63.70654714980628,87.0 64.78708598809317,86.96013087124811 65.51140323135769,86.80065416858997 65.87949887954164,86.82058877288 66.03386157072964,86.72091570465636 65.91512103905552,86.1228748324902 65.53515133768087,85.98333135469875 64.98894489192753,85.92352693668363 64.69209356277133,86.00326615129961 63.670924990292406,86.00326615129961 63.27908123578527,86.08300529086046 62.863489374896744,86.10294006399636 62.531015886197565,86.14280959624739 62.25791266330634,86.1228748324902 61.99668349363492,86.18267910967188 61.58109163274639,86.14280959624739 60.856774389510974,85.72417857171604 60.83302628318779,85.32548043413772 61.07050734653603,84.60781905693875 61.094255452859215,83.9300221726262 61.141751665534684,83.85028100605268 61.40298083523521,83.63099241102464 61.426728941558395,83.55125096296251 61.367358675721334,83.23228441995161 61.212995984533336,83.19241351761593 61.24861814401811,82.75383235311165 61.16549977185787,82.4149271704955 61.2723662503995,81.79692011095176 61.367358675721334,80.68050883044634 61.486099207395455,80.24191465818512 61.533595420070924,79.76344569813227 61.723580270743696,79.20522849502595 61.877942961931694,77.84954282682156 61.64046189858345,75.9754710227935 61.61671379226027,75.33747967040108 61.533595420070924,75.09823167420836 61.17737382504856,74.48017122242891 60.88052249583416,74.08142015015619 60.63116737929522,73.80229328250789 60.08496093357098,73.28391237325195 59.42001395620173,72.1275127571862 59.21815505230916,70.9511590156435 59.11128857379663,70.77171378826097 58.94505182947614,70.13368323352552 58.81443724461133,69.8545433543477 58.49383780907374,68.75791349300562 58.351349171076436,68.43889123061672 58.01887568234815,67.94041653966997 57.7932686721615,67.28242545511603 57.61515787465032,66.98333690842992 57.353928704949794,66.68424730547486 56.962084950413555,65.44799907362176 56.783974152902374,65.1688437494413 56.724603887065314,64.84980796647869 56.404004451527726,64.29149245422377 55.9884125906392,63.19479055293414 55.65593910194002,62.556702911180764 55.406583985401085,62.17783609899925 55.228473187889904,61.779027097145445 54.444785678817425,60.981403458990826 54.112312190118246,60.54270725575043 53.91045328625478,60.183772308078915 53.80358680774225,59.62542603228576 53.38799494685372,58.568546216636605 53.35237278736895,58.209602901326434 53.221758202504134,57.89054089927231 53.17426198985777,57.511653210454824 53.067395511316136,57.27235484942139 52.829914447967894,56.41486350237392 51.97498261986766,54.69985475876092 51.820619928708766,54.34089504466829 51.50002049317118,53.52325890429347 51.45252428049571,53.16429420251734 51.179421057604486,52.585958982228476 50.94193999428535,51.768305896621314 50.79945135622984,51.489105473789095 50.478851920721354,51.0902461299338 50.39573354853201,50.81104347141445 50.5619702928816,50.33240820066203 50.550096239720006,50.19280573709693 50.45510381436907,50.05320304337147 50.193874644697644,49.93354340839505 50.1107562725083,49.833826916787075 49.99201574083418,49.55462011547206 49.908897368673934,49.175695126948995 49.92077142180642,48.53750183968077 49.69516441161977,47.50042748908163 49.37456497611129,46.62289311768836 48.84023258354864,45.48607370582977 48.73336610503611,45.147019347448804 48.57900341384811,44.98746388553627 47.91405643642065,43.79078833751191 47.35597593753482,43.07277489072658 47.27285756537458,42.61404088998097 46.84539165132446,42.07552389179182 46.655406800622586,41.97579814591154 46.28731115243863,41.85612709580164 46.00233387638582,41.5370034686639 45.64611228136346,40.69929822497943 45.20677231415175,39.941367291587085 44.969291250774404,39.60229073010123 44.50620317723951,38.84434997689459 44.3755885924038,38.54516096978841 44.14998158218805,38.22602486367032 43.67501945546246,37.288555595347134 43.54440487062675,36.909575710917125 43.41379028579104,36.78989750026085 43.0100724780641,36.11171777800337 42.84383573374362,35.7127859921784 42.47574008553056,35.05454443628332 42.20263686263934,34.35640386072191 41.905785533454036,33.87767556757535 41.68017852326739,33.27926139473493 41.52581583207939,33.0 41.60893420423963,33.139630812438554 41.57331204475486,33.299208601940336 41.46644556624233,33.41889174668904 41.40707530040527,33.65825752854653 41.22896450286498,33.93751675227031 40.69463211033144,34.09709303791169 40.3027883557952,34.2965629720602 39.554723006207496,34.416244707026635 39.18662735799444,34.67555455238835 38.88977602880914,34.83512944706308 38.54542848694837,34.894969955075794 38.30794742357102,35.03459764254512 38.224829051381676,35.1343315640479 38.24857715773396,35.27395885684382 38.117962572869146,35.33379905466791 37.761740977846785,35.59310608994201 37.66674855249585,35.59310608994201 37.595504233497195,35.533266075330175 37.27490479795961,35.0146508441685 37.04929778774385,34.81518260169105 36.76432051172014,34.59576699223908 36.46746918253484,34.47608551108351 36.324980544508435,34.45613858108118 36.00438110899995,34.55587318396647 35.766900045622606,34.57582009041653 34.91196821752237,35.094438009531586 34.85259795168531,35.1143847891035 34.57949472882319,34.994704041044315 34.44888014398748,35.1143847891035 34.045162336260546,35.31385232672983 33.522703996888595,35.353745777869335 32.94087539165048,35.47342601849596 32.63215000927448,35.613052752043586 31.694099809014006,35.97209186677719 31.409122532990295,36.15161085321597 31.04102688477724,36.251343458996416 30.174221003515413,36.57048700805535 28.120009805483278,37.248663055746874 27.953773061104584,37.208770497429214 27.74004010410863,36.84973662671109 27.538181200245162,36.670219120427646 27.253203924221452,36.78989750026085 27.063219073519576,36.809843880422704 26.778241797495866,36.92952206288828 26.612005053146277,36.94946841016281 26.48139046828146,37.089092709706165 26.623879106307868,37.288555595347134 26.766367744334275,37.60769523491035 26.92073043549317,38.20607881707838 27.063219073519576,38.54516096978841 26.885108276008395,38.78451226005927 26.31515372393187,39.323050189337664 25.697702959208982,39.70201927146263 25.709577012370573,40.061041047873005 25.828317544044694,40.71924368420514 25.85206565039698,41.35749589977786 26.053924554260448,42.7736008243337 25.935184022557223,42.953105391032295 23.975965249846922,43.43178237522807 23.251648006611504,43.57139598586946 22.966670730587794,43.69106461173942 22.432338338025147,44.030124800083286 22.087990796135273,44.269460586143396 21.874257839139318,44.68829658403047 21.61302866943879,45.04729721897456 21.482414084573975,45.7652939227155 21.458665978250792,46.164178349681606 21.470540031412384,46.543116814827954 21.541784350411035,46.94199757770912 21.529910297249444,47.24115691679981 21.4467919250892,47.36082035651634 21.209310861711856,47.95913501839095 21.149940595874796,48.37795276628822 21.102444383199327,48.457727340566635 20.829341160337208,48.53750183968077 20.841215213527903,48.4976145995206 21.019326011039084,48.85659908455273 21.031200064200675,49.63439358121832 21.138066542713204,50.631555561933055 21.043074117362266,51.94779139662569 21.043074117362266,52.78538536645647 20.971829798363615,53.483374012568675 21.019326011039084,54.320952793670585 20.853089266689494,56.474688761809375 20.87683737304178,58.36913345150242 20.67497846914921,58.628369954632944 20.378127139963908,58.70813487282794 19.855668800562853,58.648311191213 18.276419729256304,58.668252423140075 17.516480326507008,58.728076090614195 16.910903614916606,58.648311191213 16.103467999520944,58.648311191213 15.30790643725777,58.54860496121546 15.165417799260467,58.42895733034311 15.117921586555894,58.16972021677793 15.260410224582301,55.89637614989624 15.236662118230015,55.55736347225684 15.319780490419362,55.23829147695142 15.497891287930543,55.078755028513115 16.21033447800437,55.05881295135259 16.49531175402808,55.09869710098428 16.55468201986514,55.278175542167446 16.55468201986514,57.172646999333665 16.37657122235396,58.209602901326434 16.293452850193717,58.36913345150242 16.020349627331598,58.42895733034311 15.4147729157703,58.46883989275739 14.916062682721531,58.4488986139404 13.989886535622645,58.628369954632944 14.025508695107419,59.08701720838144 14.120501120458357,59.30636936461815 14.547967034508474,60.80193710505773 14.476722715509823,61.22069133929472 14.654833513021003,61.63944350279053 14.916062682721531,62.855807091884344 14.737951885181246,66.84376189182149 14.797322151018307,67.52169553191197 14.785448097856715,67.96035558367657" stroke="#4dd2ff" stroke-linecap="round" stroke-linejoin="round" stroke-width="0.5"><title>2022-12-30 11.5km</title></polyline><polyline fill="none" points="144.76858736062422,53.94471666922618 144.78113382900483,54.134322487254394 144.7434944237757,54.45033129129297 144.78113382900483,55.04021140636178 144.7434944237757,55.22981490329403 144.81877323420485,55.71435534810007 144.7434944237757,56.03035857246141 144.7309479553951,56.38849421116902 144.79368029741454,56.999428169183375 144.81877323420485,57.884221679480106 144.8689591078146,58.137018218432786 144.94423791821464,58.874337378147175 144.93169144980493,59.1060650023137 144.83131970261456,59.52738641793985 144.84386617099517,59.84337617785786 144.78113382900483,60.327891642722534 144.78113382900483,60.896667319422704 144.81877323420485,61.191586617518624 144.90659851301461,63.045342807716224 144.8689591078146,63.12960354035749 144.85641263940488,63.25599449049332 144.94423791821464,64.16179107640346 144.90659851301461,64.68841278377658 144.96933085503406,65.10970791844738 144.95678438662435,65.50993645932613 144.80622676579515,66.14187261645566 144.7309479553951,66.28932374437863 144.69330855019507,66.54209654135775 144.56784386618529,66.90019011482946 144.6054832713853,67.23721805161767 144.56784386618529,67.25828225550504 144.54275092936587,67.48998817122629 144.4549256505852,67.80594981680042 144.3169144981366,68.0376543145685 144.25418215614627,68.56425321483403 144.1412639405462,68.81701958632038 143.92797397769755,70.10190426983172 143.8777881040878,70.18615835870878 143.76486988848774,72.0607913194035 143.5515799256682,72.86118444175372 143.60176579924882,73.47200595610775 143.60176579924882,74.20919878366112 143.5641263940488,74.25132390461658 143.401022304839,74.25132390461658 143.2881040892098,74.31451154893875 143.01208178439992,74.4198241904378 142.86152416357072,74.5461991965567 142.63568773234147,74.63044910159806 142.34711895909277,74.44088670382916 142.20910780670238,74.37769914871751 142.0961895910732,74.39876167201146 141.74488847583416,74.56726168024761 141.54414498142432,74.7357613711938 140.22676579927793,75.07275980145641 139.92565055761952,75.11488451594778 139.4488847583707,75.26232086074015 138.54553903348278,75.40975696269743 138.01858736062422,75.66250400087301 137.8554832713853,75.6203795441179 137.65473977694637,75.49400605475239 137.31598513011704,75.38869467726181 136.70120817844872,75.30444548607193 136.13661710039014,75.11488451594778 135.82295539035113,75.07275980145641 135.25836431226344,75.15700921067764 135.01998141265358,75.09382216117228 134.65613382900483,74.90426074493735 133.589684014878,74.12494848206552 133.0,73.72475846677116 133.4391263940488,73.93538501371222 134.3299256505561,74.46194921225833 135.15799256504397,74.75682381027582 136.45027881042915,74.84107351698913 136.77648698884877,74.82001109771954 137.27834572491702,74.90426074493735 137.66728624535608,74.92532314438722 138.04368029741454,74.84107351698913 138.38243494424387,74.84107351698913 138.7337360594829,74.77788624443929 138.8717472119024,74.77788624443929 139.0348513011122,74.7357613711938 140.3271375464683,74.5461991965567 140.55297397769755,74.46194921225833 141.00464684015606,74.35663662045408 141.71979553904384,74.31451154893875 142.27184014872182,74.20919878366112 142.62314126396086,74.18813621568552 142.88661710039014,74.12494848206552 143.08736059479997,74.04069810121291 143.2630111524195,74.06176070394577 143.5766728624585,74.01963549363427 143.66449814126827,73.97751026356127 143.77741635686834,73.97751026356127 143.95306691451697,73.93538501371222 145.1700743494439,73.80900914503582 146.17379182155128,73.53519415071787 146.57527881042915,73.5141314241555 146.9391263940488,73.40881771692511 148.62035315987305,72.58736654753011 148.89637546468293,72.56630359792325 149.18494423793163,72.48205174978648 150.08828996284865,72.0607913194035 150.55250929368776,71.91334970031312 151.89498141265358,71.38677050640399 151.99535315984394,71.28145429577125 153.14962825278053,71.07082150276256 153.86477695166832,70.86018821408652 154.30390334571712,70.6916812261552 154.5548327137658,70.6916812261552 154.80576208178536,70.58636419759569 155.98513011154137,70.43892014939047 156.3238847583707,70.33360282334615 157.11431226765853,70.18615835870878 157.62871747210738,70.18615835870878 158.20585501860478,70.10190426983172 158.8080855018634,70.08084073519422 159.15938661710243,70.08084073519422 159.81180297397077,70.18615835870878 160.07527881042915,70.14403132418374 160.7276951672975,70.16509484394919 160.81552044610726,70.1229677995143 161.94470260222442,70.14403132418374 161.94470260222442,70.27041236825607 161.9196096654341,70.22828537333407 162.01998141265358,70.27041236825607 162.4967472119024,70.16509484394919 163.0864312267804,70.14403132418374 163.688661710039,70.03871365114901 164.45399628253654,70.03871365114901 165.33224907066324,69.99658654722589 165.68355018587317,70.01765010169765 166.5868959107902,69.91233227989142 166.82527881042915,69.93339585413196 167.07620817844872,69.87020511647279 168.04228624535608,69.82807793327811 168.46886617102427,69.6806326357837 168.74488847583416,69.78595073014003 169.56040892194142,69.82807793327811 170.48884758364875,69.7648871211859 171.4549256505852,69.80701433419017 172.9103159851511,69.78595073014003 173.44981412641937,69.6806326357837 173.82620817844872,69.72275988837646 174.47862453534617,69.61744171958708 175.4070631970535,69.42786870340933 176.1347583643219,69.42786870340933 176.81226765800966,69.5542507588325 177.3141263940488,69.53318709529412 177.80343866173644,69.44893239172961 178.21747211896582,69.46999607505131 179.3842936803121,69.34361390065897 180.4131040892389,69.34361390065897 180.80204460967798,69.25935901862249 181.07806691448786,69.32255018758588 181.75557620820473,69.30148646952875 182.93494423793163,69.17510405721987 183.67518587360973,69.1540403044346 184.12685873606824,69.00659389643988 184.89219330856577,69.09084901642927 185.16821561340475,69.06978524387523 186.14684014872182,68.9223386970989 186.61105947956094,68.9223386970989 187.0,69.00659389643988 187.0,68.77489190734923 186.9874535316194,68.83808341836266 186.87453531599022,69.00659389643988 186.53578066916089,69.00659389643988 186.46050185873173,69.06978524387523 186.4228624535608,69.04872146643174 186.07156133829267,69.11191278407932 184.6538104089559,69.13297654675262 184.32760223050718,69.06978524387523 183.93866171006812,69.11191278407932 183.67518587360973,69.09084901642927 182.1696096654341,69.23829528562055 181.83085501860478,69.19616780502838 181.5548327137658,69.23829528562055 180.92750929368776,69.23829528562055 180.28763940522913,69.30148646952875 180.0994423791999,69.25935901862249 179.3466542751121,69.28042274654581 178.54368029741454,69.3646776087553 178.14219330856577,69.25935901862249 177.4772304832877,69.3646776087553 177.23884758364875,69.44893239172961 176.7244423791708,69.46999607505131 176.47351301115123,69.53318709529412 176.02184014872182,69.44893239172961 175.65799256507307,69.5542507588325 175.2690520446049,69.53318709529412 174.76719330856577,69.70169626455754 174.5413568773365,69.5963780709717 174.05204460967798,69.61744171958708 173.8011152416293,69.5542507588325 173.75092936804867,69.5963780709717 173.5125464684097,69.63850536323298 173.1988847583707,69.63850536323298 172.93540892194142,69.70169626455754 172.50882899630233,69.65956900193123 171.61802973979502,69.63850536323298 171.25418215614627,69.65956900193123 170.94052044610726,69.57531441735046 170.53903345725848,69.61744171958708 170.22537174721947,69.5963780709717 170.03717472119024,69.63850536323298 168.97072490709252,69.7648871211859 168.70724907063413,69.74382350729866 168.26812267658534,69.89126870067412 167.6282527881267,69.95445942348306 167.27695167285856,70.03871365114901 166.98838289963896,70.08084073519422 166.53671003718046,69.99658654722589 166.3234200743609,70.08084073519422 166.0348513011122,70.1229677995143 165.7211895910732,70.1229677995143 165.38243494424387,70.03871365114901 165.09386617099517,70.03871365114901 164.91821561340475,69.99658654722589 164.7049256505852,70.03871365114901 164.03996282527805,69.9755229878574 163.73884758364875,70.03871365114901 162.3336431226926,70.01765010169765 161.54321561337565,70.27041236825607 161.43029739777558,70.6916812261552 161.35501858734642,70.77593475973117 161.25464684015606,70.71274461696157 160.5771375464683,70.5021104854386 160.20074349443894,70.3125393432274 159.8494423791999,70.3125393432274 159.59851301115123,70.37572976861702 158.94609665428288,70.29147585822648 158.2434944237757,70.35466629842995 157.96747211896582,70.33360282334615 157.6538104089268,70.33360282334615 157.02648698887788,70.52317392093391 156.83828996284865,70.48104704504658 156.1733271375415,70.58636419759569 155.7216542751121,70.71274461696157 155.33271375464392,70.75487138379685 155.09433085503406,70.83912485792098 154.83085501860478,70.98656824679347 154.30390334571712,71.07082150276256 154.09061338289757,71.15507467950374 153.91496282530716,71.07082150276256 153.80204460967798,70.96550492042297 153.86477695166832,70.96550492042297 153.80204460967798,71.02869488471333 153.4131040892389,71.21826450988738 153.71421933086822,70.88125156525348 153.73931226765853,70.79699813075422 153.65148698884877,70.37572976861702 153.65148698884877,69.5542507588325 153.58875464685843,69.04872146643174 153.62639405205846,67.911270117409 153.57620817841962,67.08976848547172 153.46328996281954,66.37358142276207 153.563661710039,65.32035474202712 153.62639405205846,65.32035474202712 153.60130111526814,65.25716074701631 153.6765799256391,64.98331958628114 153.51347583642928,62.91895156001556 153.76440520444885,62.72936435377051 154.16589219332673,62.645103244285565 154.8684944238048,62.62403795454884 155.1445167286438,62.53977674588532 155.1570631970535,62.05527325653384 155.0065055761952,60.81240448434255 155.0190520446049,59.96977176943619 154.96886617102427,59.44312229343632 154.89358736059512,57.12582777770149 154.93122676579515,56.409560968771984 154.80576208178536,54.74527183488681 154.79321561337565,53.965784002160945 154.90613382900483,53.73404306681914 154.98141263940488,53.24949189909239 154.94377323423396,53.05988420613721 154.96886617102427,52.764938107495254 155.19470260222442,52.51212639208097 155.54600371746346,52.469991036719875 156.57481412639027,52.596397043264005 156.95120817844872,52.72280287119793 157.6412639405462,53.01774910870154 158.45678438662435,52.8913436974035 158.65752788103418,52.764938107495254 159.1342936803121,52.25931396242231 159.2597583643219,51.88009397861606 159.2472118959122,51.564076097885845 159.19702602233156,51.3323289427135 158.99628252789262,50.6160157593913 158.8206319702731,50.25785701743007 158.72026022305363,50.152515938170836 157.76672862455598,49.541535232929164 157.46561338289757,49.415124910919985 157.08921933086822,49.3308512638032 156.73791821562918,49.120166798682476 156.39916356879985,48.84627625239955 156.24860594797065,48.46704180432425 156.22351301115123,48.19314925892104 156.28624535317067,47.497879801703675 156.24860594797065,47.202915369511175 156.27369888476096,46.8447429662192 156.39916356879985,46.42336183269799 156.59990706320968,45.98090950682672 156.6375464684097,45.68594007415959 156.54972118959995,45.6438015043459 156.43680297399987,45.62273221203941 155.80947955392185,45.938771075925615 155.37035315987305,46.044117115889094 155.10687732341466,46.06518630896608 154.31644981415593,45.98090950682672 153.91496282530716,45.8755633924593 153.65148698884877,45.707009351594024 152.43447955389274,44.59033081105008 152.19609665428288,44.40070476907567 151.95771375464392,44.33749599913426 151.7820631970244,44.40070476907567 151.97026022305363,45.454177694860846 151.9326208178536,46.128393858532945 151.95771375464392,46.86581197079067 152.02044609666336,47.202915369511175 152.02044609666336,48.12994316787808 152.12081784385373,49.22550909324491 152.17100371749257,50.13144770745566 152.13336431229254,50.784560553656775 152.12081784385373,52.57532938788063 152.24628252789262,52.95454642541881 152.43447955389274,53.123086815088755 152.71050185873173,53.20735689088906 153.0868959107902,53.291626887345046 153.563661710039,53.291626887345046 153.91496282530716,53.22842439752276 154.50464684015606,52.8913436974035 155.69656133829267,52.533194062336406 155.94749070631224,52.533194062336406 156.72537174721947,52.68066761508817 157.3652416357072,53.08095174743357 157.62871747210738,53.10201928377501 157.9423791821464,53.08095174743357 158.20585501860478,53.03881665991503 158.5320631970244,52.91241127833928 158.79553903348278,52.72280287119793 159.03392193309264,52.42785566153907 159.18447955389274,52.15397523919819 159.2472118959122,51.88009397861606 159.2597583643219,51.58514399130945 159.20957249071216,51.31126098977256 159.0966542751121,51.05844516731304 159.00882899630233,50.6792200944401 158.79553903348278,50.34212979157019 158.5446096654341,50.08931123104412 157.69144981412683,49.45726170479611 156.98884758364875,49.24657753725478 156.4618959107902,48.78307062268141 156.3238847583707,48.57238486777351 156.27369888476096,48.1720805668956 156.08550185876084,47.37146659272548 155.8973048327316,47.05543278883124 155.3201672862342,46.360154491470894 154.88104089221451,46.044117115889094 154.2662639405171,45.91770185306814 153.8145910780877,45.72807862404443 153.57620817841962,45.49631635393598 153.01161710039014,45.11706770808814 152.42193308551214,44.59033081105008 152.18355018587317,44.46391349440819 151.85734200745355,44.42177434916812 151.69423791821464,44.50605261976307 151.69423791821464,44.56926127070619 151.80715613381471,45.01172057670192 151.89498141265358,45.58059361252526 151.84479553904384,46.612983588340285 151.97026022305363,47.202915369511175 152.00789962825365,47.68749928034231 152.03299256507307,48.25635530533327 151.95771375464392,48.61452205844398 152.03299256507307,49.45726170479611" stroke="#4dd2ff" stroke-linecap="round" stroke-linejoin="round" stroke-width="0.5"><title>2022-11-11 10.2km</title></polyline><polyline fill="none" points="42.455957409285475,107.86986337993949 44.204670704348246,107.0979214703093 44.87312083761208,106.84728796917989 46.68151718027366,105.96504630327763 47.737907123038894,105.35348168839664 48.43619878010941,104.81208928606429 49.07480738956656,104.22056008419895 49.93424327520188,103.16781828649437 50.346056303722435,102.77679327175247 51.28308015126095,102.16518283885671 51.862005713090184,101.85436105355075 52.190262474963674,101.60369666987935 52.73337820825691,101.37308413287974 52.85274430346908,101.2828441043257 52.972110398695804,101.1224169143643 53.27052563676261,100.9018285407019 53.77783154147619,100.75142672128095 54.3269155795133,100.52080956572718 54.94165096992219,100.13978717933605 55.26990773179568,99.85903165896343 55.56832296986249,99.66851792956004 55.79511855079909,99.64846380315976 55.956262779349345,99.5782742863521 56.159185141237685,99.5481930294045 56.33226597930479,99.56824720306759 56.83957188401837,99.81892357627657 56.941033064969815,99.8490046418483 57.14992373161658,99.83897762237211 57.34090948397352,99.62840966731164 57.32300456968369,99.47800334721796 57.424465750635136,99.26743360602995 57.800468950590584,98.81620922342154 58.10485249343037,98.56552694350466 59.00009820761625,98.22459667290786 59.30448175044148,97.79341624257722 59.57305546470161,97.46250736787624 59.66258003612165,97.3622314432796 59.83566087420331,97.30206577508943 60.0147100170434,97.16167888518248 60.080361369415186,96.98118077476101 60.348935083675315,96.6703211231943 60.35490338843374,96.69037665313772 60.33699847414391,96.71043217362785 60.331030169385485,96.6703211231943 60.39071321699885,96.61015447674617 60.45039626461221,96.4597374884197 60.69509675982408,95.61739252788175 60.74881150267902,95.47700008001448 60.86817759790574,95.25638244037145 60.969638778842636,94.80511552394637 61.29789554071613,93.80228301994794 61.488881293073064,93.48137162711464 61.61421569305821,93.18051499833382 61.60824738829979,93.0 61.46500807403936,93.67191305849519 60.91592403600225,95.20624190820672 60.87414590266417,95.63744855406185 60.71300167409936,96.07867873832402 60.47426948364591,96.50987654360142 60.47426948364591,96.58007112164705 60.331030169385485,96.89093143244827 59.829692569430335,97.53270037450056 59.286576836166205,98.0641579533949 59.0120348171331,98.2546788654945 58.815080760017736,98.27473364870093 58.468919083854416,98.42514422169552 57.76465912202548,98.90645448271789 57.30509965540841,99.0568628228757 57.036525941148284,99.2273249657519 56.59487138882105,99.4178406703304 56.05175565552781,99.72868025202843 55.84286498888105,99.76878841976759 55.20425637943845,100.17989495958864 54.84615809375828,100.47067523611622 54.60742590329028,100.57094383631011 54.43434506522317,100.70129266335061 54.267232531899936,100.78150712768547 54.07027847477002,100.81158751284966 53.688306970056146,100.95196236240918 53.21084258914925,101.21265728312028 52.799029560614144,101.51345713034061 52.60207550349878,101.55356361599297 52.15445264639857,101.81425485139334 51.99330841784831,101.84433450655342 51.098062703647884,102.22534163187265 50.62059832274099,102.48602875217148 50.13716563707567,102.85700382407413 49.54630346571503,103.53878741525841 49.07480738956656,104.15037810786998 48.52572335152945,104.70180480418276 48.036322361105704,105.13291524471424 47.15301325643668,105.72443176571323 45.64900045657123,106.48637313456493 44.30613188528514,107.04779488814529 42.515640456898836,107.69943585101646 42.360464533092454,107.69943585101646 41.75766575221496,107.46885634322462 41.56667999984347,107.43878066316574 41.17277188561275,107.48890678479984 41.0713107046613,107.56910845663879 41.035500876096194,107.72951134688628 41.0593740951299,108.24079152500053 40.999691047516535,108.42124188612252 40.89822986657964,108.57161660260317 39.704568914326956,109.50392798633038 39.44196350482525,109.67434828956175 38.57059100968763,110.15553134459515 37.99166544782929,110.57656205520288 37.484359543115715,111.01763738013688 37.23965904790384,111.28829497557672 35.813234209956136,112.49119679856267 35.16268899096758,113.1126827539374 34.52408038151043,113.6238982696741 34.28534819105698,113.91458670692373 33.77207398158498,114.71647555203526 33.020067581674084,115.99946628167163 32.05917051508732,117.68333292807984 31.187798019935144,119.38717780118532 31.002780572351185,119.80811720477868 30.34029874384578,121.12102051005058 30.214964343846077,121.30141627322155 29.89864419150399,121.59205228362589 29.295845410611946,122.53410019438343 28.93177882017335,123.20554715002254 28.34091664881271,123.98721832385127 27.732149563147686,124.84904426316098 27.606815163162537,125.06950856132062 27.344209753660834,125.3601188461962 27.21290704891726,125.41022386722943 26.675759620397002,125.16971922848643 26.454932344233384,125.10959285650642 26.21023184902151,125.06950856132062 25.83422864905151,125.07952963864227 25.29111291577283,125.2298455155651 24.933014630092657,125.44028685155718 24.527169906330528,125.61064336156778 23.530463011193206,125.7609573630707 23.3812553921598,125.8411246135438 23.423033525483334,126.5024986694043 23.793068420694908,127.70497062860886 23.888561296873377,128.10578706719934 24.025832306375378,130.32022986967786 23.984054173051845,130.9414555768817 23.86468807782512,131.4524570247395 23.685638934985036,131.87327714104322 23.560304534999887,132.26403495309023 23.220111163609545,132.74496272129 23.16639642075461,132.9253092337658 22.521819506539032,134.107561895833 22.277119011312607,134.74876994698207 21.841432763743796,136.63226275032684 21.889179201840307,136.95284897178317 21.853369373260648,137.2533963620299 21.30428533522354,138.56576177436727 21.167014325706987,138.82622643454488 20.361293182941154,140.05840303586047 19.955448459164472,140.80971273154682 19.609286783015705,141.3105784969557 19.454110859223874,141.64114667457943 19.269093411625363,141.8214555079212 18.69613615454,142.66288663439445 18.391752611714764,143.25388188922625 18.385784306941787,143.33401620750556 18.433530745038297,143.41415037495608 18.720009373588255,143.6645686762604 19.64509661158081,144.36573208485424 20.33741996390745,144.79644102550992 20.456786059119622,144.9667201026641 20.504532497216132,145.59774839222518 20.42694453531294,145.71794319661967 20.33741996390745,145.71794319661967 20.235958782956004,145.6077646388694 20.098687773454003,145.53765086278509 19.859955583000556,145.61778088318715 19.674938135387492,145.73797563104017 19.62122339254711,145.93829945684956 19.513793906837236,146.14863845961736 19.466047468740726,146.48918511843112 19.501857297320385,146.52924925217667 19.62122339254711,146.56931334823275 19.716716268711025,146.63942542559926 20.534374021022813,146.87980881443946 20.922313830509665,146.82972905369752 21.155077716190135,146.71955337264808 22.020481906583882,146.4290888471587 22.306960535119288,146.37900855626867 23.154459811223205,146.14863845961736 23.53643131595163,146.01842872327688 24.38393059205555,145.79807287773838 24.58685295394389,145.6979107527768 25.064317334850784,145.5476671235665 25.42838392528938,145.46753697124586 25.798418820500956,145.5276345996408 26.532520306122024,145.8381376617308 26.842872153720236,145.9082509430391 27.779896001244197,146.1987190214768 28.406568001169944,146.49920115538953 29.045176610641647,146.67948941796203 30.01204198197229,147.0 30.083661639102502,146.96995223542945 30.38207687716931,146.50921719001235 30.8237314295111,145.6077646388694 30.907287696158164,145.34734145997572 30.919224305689568,145.16704755694263 30.859541258076206,144.43584779068442 30.77598499141459,144.0051352025348 30.692428724752972,143.8548856002435 30.590967543816078,143.75471890416702 30.262710781942587,143.57441825745627 29.69572182961565,143.53435134338542 29.391338286790415,143.49428439158874 28.94968373446318,143.28393227624292 28.63336358210654,143.18376423702284 28.406568001169944,143.03351173636474 28.03653310597292,142.90329247355658 27.809737525050878,142.69293743850722 27.296463315564324,142.37239443440194 26.705601144203683,142.16203677652447 26.22813676331134,141.76135264833283 25.81632373476168,141.47085429754407 25.422415620530955,141.33061300505324 24.903173106285976,141.07016366489188 24.53910651586193,140.9599730798309 24.06761043969891,140.69952147244658 22.61731238270295,140.39899840730322 21.441556344740093,140.32887605356154 20.58808876387775,140.4390682718804 20.450817754361196,140.3789634608438 20.361293182941154,140.27878858732402 20.36726148771413,140.1585784279323 20.886504001930007,139.21692043721487 21.31622194474039,138.52569014679102 21.811591239937115,137.7843582332771 22.1040381732455,137.11314117724578 22.181626135134138,136.6022076683148 22.223404268472223,135.89089786750264 22.44423154463584,134.8189014916843 22.456168154152692,134.61852534316677 22.503914592249203,134.47826147808155 22.688932039847714,134.408129372252 22.718773563654395,134.3680538313256 22.92766423030116,133.70680195977002 23.70951215403329,132.1237633306646 23.769195201646653,132.04360791033469 23.888561296873377,132.0335884721917 23.828878249260015,131.78310175201477 23.995990782568697,131.25206503111622 24.240691277795122,130.22003132601458 24.42570872537908,129.7891749008595 24.950919544382486,129.02765055468444 25.0225392015127,128.8673279038885 26.15054880140815,127.14382127448516 26.860777068010066,126.12170880127451 27.20693874414428,125.72087368125176 27.350178058433812,125.60062240924708 27.505353982225643,125.56053857642655 27.845547353615984,125.58058049758438 28.854190858270158,125.8411246135438 30.4477282295411,126.19185455922889 30.781953296173015,126.22191699154064 31.933836115102167,126.5024986694043 34.48827055294532,126.64278881486098 34.91202019099728,126.73297509276745 35.550628800468985,126.91334707546775 35.82517081947299,127.1638624502375 36.624923657494946,127.76509333498325 37.61566224787384,128.49657946141815 38.003602057360695,128.7170248704042 38.57059100968763,128.98756994858195 38.904816076304996,128.98756994858195 39.62101264766534,128.8673279038885 39.99701584762079,128.8673279038885 40.58787801899598,128.79718655430588 42.26497165692854,128.73706530553318 42.5753235045122,128.75710573121978 42.9751999235159,128.73706530553318 44.41356137099501,128.84728753007766 44.82537439951557,128.81722695166718 44.9924869328388,128.75710573121978 45.02232845664548,128.70700464931542 44.80746948524029,128.41641721146334 44.55680068525544,127.82521595644903 44.54486407573859,127.69495016930159 44.41952967575344,127.38431476058395 44.33597340909182,127.0536358669633 44.28225866625144,126.74299577853526 44.359846628140076,126.33214572840188 44.71197660906182,125.650727147211 44.7418181328685,125.43026585913321 44.783596266192035,125.44028685155718 44.88505744712893,125.21982447360642 44.86715253285365,125.00938204777958 44.908930666177184,124.8390231315534 45.111853028065525,124.16760194097878 45.21331420901697,123.9270902815988 45.2312191232777,123.75672703402961 45.42220487566374,123.44606288614523 45.60125401848927,123.03518101475493 45.875796037507826,122.6844250598133 45.95338399941102,122.5541435404557 46.19808449462289,122.28355757228928 46.71732700885332,121.87266447972797 46.87847123740357,121.70229300985193 47.08736190405034,121.31143823765888 47.38577714211715,120.85042543185227 47.52901645639213,120.66000564195201 47.55288967544038,120.55978435776888 47.50514323734387,120.1989857808494 47.439491884972085,118.84596387984675 47.30818918022851,117.83367492505022 46.89040784693498,116.0596055232345 46.66958057075681,114.87685150818106 46.43084838030336,113.9847525840105 46.32341889460804,113.3733031958327 46.09065500891302,112.49119679856267 45.91160586607293,111.89977431736588 45.91160586607293,111.72936292475788 45.83998620894272,111.46873241635512 45.60125401848927,110.08535915460016 45.42817318040761,109.53400220706499 45.362521828050376,109.39365566179185 45.255092342340504,109.35355656386673 44.70003999953042,109.42372996047015 44.06143139007327,109.54402694260352 43.906255466281436,109.60417530615268 43.6018719234562,109.82471857866585 43.17812228540424,110.21567884398792 41.924778285523644,111.23817332850012 41.25632815225981,111.69929025525016 40.84451512373926,112.03008845129807" stroke="#ff0000" stroke-linecap="round" stroke-linejoin="round" stroke-width="0.5"><title>2022-10-09 21.3km</title></polyline><polyline fill="none" points="166.80271018942585,110.54978308768477 166.46074271132238,110.46758682393556 165.19057779264404,108.90585043501778 164.23795410362072,108.12497698480729 162.6991004521842,106.35772413255472 162.16172298655147,105.98783172930416 161.3068042913219,104.96034870637959 160.69614808046026,103.850660227341 160.4274593476439,103.52186228200299 160.35418060229858,103.52186228200299 160.06106562109198,103.850660227341 159.42598316178191,104.59045333293034 158.64434321178123,105.7823356100489 157.9604082556325,106.64541768034542 157.49630953528685,107.4262977698163 156.9345058213221,108.00168085657788 155.8597508900566,109.44013025057939 154.56515972298803,111.45393942716328 153.39269979804521,113.79650445432344 152.2935186184477,116.63219887661398 151.97597738879267,118.44044365688751 151.97597738879267,119.26236689132202 151.7072886559763,120.94729738624301 151.65843615913764,122.83768779118691 152.26909236999927,126.37184085934132 152.63548609655118,126.9882555556178 152.78204358718358,127.11153823279164 152.97745357465465,127.11153823279164 153.49040479183896,126.37184085934132 154.9804059464368,124.68696288346837 155.3467996729305,124.11163496061636 155.68876715103397,123.45411500538466 155.98188213224057,122.30344910620624 156.34827585879248,121.39934913376783 156.7879483306897,120.65962748097081 157.20319455408026,119.38565504165308 158.6931957086781,117.86509508304152 158.9130319445976,117.74180585541762 160.30532810545992,117.33084113272344 161.0136893100571,117.00206865570362 161.7464767631609,116.87877881666645 163.26090416620718,117.20755152655329 163.94483912241412,117.08426183320262 165.312709034828,116.63219887661398 166.8271364378743,115.76916633515066 167.31566140655195,115.60477869924944 167.7064813815523,115.68697253664868 168.34156384086236,115.64587562274392 169.56287626270205,116.01574749802967 170.0514012313797,115.97465066188306 170.07582747988636,115.64587562274392 168.9522200517822,113.46772530020826 168.61025257367874,112.93345784999838 166.85156268632272,110.91966579433938 165.63025026448304,109.72781870256586 165.55697151919594,109.48122862991295 165.63025026448304,109.39903186150332 166.1187752332189,109.44013025057939 167.46221889718436,109.85111360777955 169.0987775424146,110.17989959492115 170.36894246109296,110.26209599449794 170.6132049454609,110.2209977995517 170.71090993919643,110.0977031562943 170.02697498293128,107.09750658013218 169.34304002678255,104.46715470041818 169.07435129396617,104.13835791999009 168.3659900893108,103.80956051820976 168.2927113440237,103.11086397675535 168.17058010183973,102.78206463372044 167.9263176174718,102.53546471866139 167.4866451456328,102.65876471985393 165.3859877801151,103.64516158435435 164.04254411614966,104.17945755145774 162.82123169430997,104.91924925922649 161.35565678821877,105.2891439337327 160.9404105648282,105.20694518513483 160.5740168382763,104.59045333293034 160.32975435390836,103.93285961662332 160.52516434137942,103.02866419924248 160.8671318194829,102.32996452257794 160.7205743288505,102.00116370393516 159.96336062735645,101.30245990159892 159.42598316178191,100.89145635456953 158.64434321178123,99.65843988883717 158.2535232368391,98.79532316467521 157.0810633118963,97.11017817413085 156.2749971135636,96.20594730520679 155.51778341201134,94.9728976392289 154.5407334745396,94.39747147168964 153.12401106528705,93.16440899086592 152.6599123449996,93.0411022622502 151.65843615913764,93.0 150.16843500448158,93.16440899086592 149.753188781091,93.1233067577341 148.873843837413,93.28771563219925 146.94417021097615,93.24661342817853 145.380890311033,93.36992001108592 144.84351284545846,93.49322650666 144.2817091314355,93.98645161555032 143.45121668459615,95.17840652373707 142.71842923149234,96.08264273180248 141.8879367847112,96.6169619190041 140.52006687229732,97.31568453435466 139.68957442545798,97.35678577735234 139.03006571769947,97.60339303109504 138.3949832583894,97.56229184645053 136.26989964442328,97.39788701066573 134.99973472574493,97.19238074731402 134.9020297320094,97.5211906520708 134.87760348361917,98.17880859769502 134.99973472574493,98.79532316467521 135.1951447132742,99.37073478977982 135.4882596944808,99.94614451225789 136.44088338350412,102.45326466930419 136.68514586787205,103.4396626986927 136.61186712252675,103.80956051820976 136.24547339597484,104.3027563877913 135.7080959304003,104.75485137371288 135.36612845229683,105.20694518513483 135.17071846482577,105.57683924814046 135.07301347109023,106.19332760598627 135.14629221637733,106.76871476947417 135.97678466321668,108.37156897914974 136.73399836471071,109.48122862991295 137.27137583028525,110.67307741053082 137.39350707246922,111.24844976243185 136.92940835218178,114.289672020961 136.7095721163205,115.27600296134187 136.41645713505568,116.1801347458968 136.31875214132015,116.71439222885965 135.75694842723897,118.31715483692824 135.68366968201008,118.9746942008278 135.4149809491937,120.3308612926121 135.24399721011287,122.50892571760778 135.07301347109023,123.28973462850263 134.19366852735402,125.96089651567308 134.0959635336185,126.41293524041248 134.12038978206692,127.07044401670282 134.315799769538,127.23482082266128 134.48678350861883,127.23482082266128 135.58596468821634,126.82387851677049 136.5141621287912,126.41293524041248 136.97826084907865,126.04308546216635 137.39350707246922,125.87870753047173 137.75990079902112,125.63214034208067 138.3217045130441,125.42666741809808 139.127770711435,125.01572084255895 139.83613191609038,124.810247190886 140.83760810195236,124.23491967560403 141.69252679718193,124.07054003614758 142.79170797683764,123.57740018627374 143.30465919402195,123.20754438169388 143.98859415017068,123.00206859528407 144.62367660953896,122.63221156797954 148.40974511712557,121.81030424892379 150.3882712404593,121.48154023447569 150.77909121540142,121.3582535689493 151.36532117787283,121.3582535689493 151.73171490442473,121.5637312962208 151.87827239499893,122.05687685224257 151.87827239499893,123.57740018627374 152.31794486689614,125.87870753047173 152.6599123449996,129.49498616055644 152.39122361218324,131.5907496095606 151.97597738879267,133.23446798873192 151.82941989816027,134.0563213566711 151.4141736747697,135.41237092889787 150.53482873103349,137.26151240883337 149.5333525451715,138.6175370074925 149.0204013279872,139.06954285907705 148.6540076014935,139.52154753691866 148.26318762649316,140.17900679074955 147.57925267028622,141.04191829228512 145.86941527976887,142.7266379408975 144.4282666220679,144.08261995910289 143.5489216783899,145.15096198718675 143.23138044867665,145.6440407113696 142.4741667471826,146.5480147441558 142.20547801436624,147.0 142.30318300810177,147.0 142.4741667471826,146.3836561782955 142.88941297063138,145.80839997557632 143.69547916896408,145.02769208790414 144.7213816032745,143.58953681112325 145.28318531729747,142.93209044096875 146.2602352547692,142.27464158709336 146.82203896879219,141.78155331697053 147.23728519218275,141.4939178475688 147.7013839124702,140.83646356085228 148.3608926202287,140.2611890227563 149.11810632178094,139.23390833225858 150.07073001074605,137.71352178233064 150.63253372482723,137.17932876023406 151.9271248918958,136.43967417662498 152.6599123449996,136.43967417662498 153.44155229494208,136.19312195019302 153.90565101522952,135.57673985604924 154.4674547292525,134.67270883561287 155.126963437011,134.0563213566711 156.51925959787332,133.52211710894335 156.91007957287366,133.31665350017283 157.6672932743677,132.16605280815565 158.27794948522933,131.09763106858009 159.10844193212688,130.02920276972873 160.03663937264355,129.16623666288797 160.4274593476439,128.9196741320702 161.20909929758636,128.17998444383556 161.91746050218353,127.85123246224248 162.57696921000024,127.35810332518304 163.7005766380462,127.19372663569811 164.48221658798866,126.70059563567338 165.06844655046007,125.79651850654045 165.21500404109247,125.42666741809808 165.3859877801151,124.68696288346837 165.43484027701197,123.74178029140603 165.0928727989085,121.39934913376783 165.06844655046007,119.67332705266017 164.97074155672453,118.9746942008278 164.70205282390816,118.27605854412104 164.70205282390816,117.98838422316476 165.28828278637957,117.53632361536438 165.87451274885098,117.20755152655329 166.99812017689692,116.4678120558674 167.9263176174718,116.50890877572238 168.5858263252303,116.75548889035417 169.6117287595407,116.87877881666645 170.49107370327692,117.28974460698373 171.37041864695493,118.48153991076106 172.0787798516103,119.75551896864636 172.32304233597824,120.00209448330133 172.98255104373675,120.45414868597436 173.56878100620816,120.6185317413474 176.13353709201328,120.577435992127 177.50140700436896,120.82401034223585 178.79599817149574,120.86510603321949 179.47993312770268,121.07058434289502 180.0661630901741,120.98839304810826 180.8722292885068,121.02948870042746 181.5317379963235,120.86510603321949 181.55616424477194,120.7829146414224 180.38370431988733,121.07058434289502 178.86927691684105,121.23496681596589 177.84337448247243,121.11167997578741 177.13501327781705,121.11167997578741 175.62058587482898,120.86510603321949 173.32451852184022,120.74181893091009 172.81156730471412,120.49524446442956 172.34746858436847,120.12538210957428 171.90779611252947,119.59113509811141 171.3459923985065,118.6459248293686 171.02845116885146,118.35825111992017 170.686483690748,117.78290227438265 170.9063199266675,116.67329555770266 170.93074617511593,112.60467706514464 170.80861493293196,111.33064565752284 170.88189367821906,110.87856775472028 171.3459923985065,110.7141754988188 172.90927229844965,110.54978308768477 174.1794372170698,110.30319417974533 175.08320840925444,109.97440842578362 176.6464883091394,109.23463820794859 178.1120632152888,108.12497698480729 180.0661630901741,106.35772413255472 182.45993543689838,104.63155285762332 183.65682161023142,103.60406182667793 184.19419907586416,103.23416357023234 184.97583902580664,102.28886445415264 185.9040364663815,101.46686104870605 185.07354401954217,102.24776437610853 184.12092033057706,102.98756429595232 183.7056741071283,103.52186228200299 183.16829664155375,103.93285961662332 182.97288665408269,104.01505896706658 180.1394418355194,104.54935379849485 179.87075310270302,104.63155285762332 179.62649061833508,104.79595085972687 178.94255566212814,104.87814980235271 178.30747320275987,104.83705033587466 177.2327182716108,104.91924925922649 176.47550457005855,104.83705033587466 176.01140584982932,104.96034870637959 175.62058587482898,104.91924925922649 175.10763465770287,105.00144814376836 174.74124093115097,105.16584579618939 174.42369970143773,105.20694518513483 171.9322223609779,105.08364698945661 171.10172991419677,104.83705033587466 169.73386000172468,104.63155285762332 169.17205628775991,104.34385598045628 168.90336755494354,104.05615862768173 168.7323838158627,103.80956051820976 168.78123631275957,103.4396626986927 168.63467882212717,103.02866419924248 168.34156384086236,102.49436469890497 168.4392688346561,102.37106458114431 169.97812248609262,101.46686104870605 171.17500865948386,101.17915893944155 172.61615731718484,100.31604975786468 173.2512397764949,99.74064125847508 174.2527159624151,98.01440434424876 174.3259947077604,97.64449420614983 174.22828971396666,97.35678577735234 173.69091224839212,96.9457729109854 172.46959982655244,96.53475907393295 172.12763234850718,96.28815030572878 171.81009111879393,95.83603332282655 171.565828634426,95.63052521505597 171.32156615005806,95.5072202339652 170.9795986720128,95.5072202339652 169.92926998925395,96.12374426595488 169.2453350329888,96.6169619190041 168.63467882212717,97.2334820193064 168.19500635028817,97.93220215937617 167.95074386592023,98.13770754881989 167.2668089097133,98.05550542211131 166.9736939285067,97.84999993548263 166.16762773005757,96.86357022130687 165.55697151919594,96.78136749257828 165.28828278637957,96.78136749257828 164.2868066005176,97.2334820193064 163.4074616568396,97.84999993548263 163.04106793028768,98.34321269571228 162.67467420373578,99.08302921501308 162.43041171936784,99.8639432399068 162.45483796781627,101.05585788991448 161.94188675069017,102.1655641908801 161.99073924752884,102.32996452257794 162.16172298655147,102.45326466930419 162.6258217068971,102.4121646300191 163.30975666304585,102.24776437610853 164.55549533333397,102.04226384015783 165.58139776764438,101.71346247805195 166.70500519569032,101.46686104870605 167.46221889718436,101.42576077653212 167.80418637528783,101.7545626823703 168.04844885965576,102.32996452257794 167.7797601268976,102.69986470075673 166.31418522068998,103.31636325082945 163.52959289902356,104.71375187813828 162.43041171936784,105.04254757139279 161.7464767631609,105.37134264357883 161.84418175695464,105.8234348533806 164.97074155672453,109.07024439916859 166.28975897224154,110.30319417974533 166.92484143160982,111.00186184462655 165.77680775511544,111.65942884916876" stroke="#4dd2ff" stroke-linecap="round" stroke-linejoin="round" stroke-width="0.5"><title>2022-09-04 10.0km</title></polyline><polyline fill="none" points="24.09322441133554,173.825323061159 24.067275348410476,173.8471094046472 24.067275348410476,173.99961366563366 24.145122537272982,174.19569020326162 24.508409418544034,174.805703441285 24.599231138883624,175.08892250632198 24.625180201837793,175.5028565036191 24.728976453625364,176.396076189405 24.754925516608637,177.42000034470402 24.728976453625364,177.83392391516827 24.7808745795337,178.20427501412632 24.793849111010786,178.5746246309791 24.767900048056617,178.92318762229115 24.819798173964955,179.27174930077308 24.83277270544204,179.46781466794346 24.767900048056617,180.49170483644411 24.703027390671195,180.88382998610177 24.716001922177384,181.3195226480966 24.67707832774613,182.08197987073072 24.690052859223215,182.82264658612985 24.690052859223215,184.02077136941807 24.703027390671195,184.43466541696398 24.767900048056617,184.80499010100903 24.74195098510245,185.21888064129598 24.80682364248787,185.89417175937706 24.7808745795337,186.24270718277694 24.638154733314877,186.48232452492084 24.638154733314877,186.5258912477002 24.80682364248787,187.02690708601585 24.793849111010786,187.31008875140105 24.404613166756462,189.3359015470196 24.326765977893956,189.98938008621917 24.209995194600197,190.49037717466854 24.171071600198047,190.94780693039502 23.820759250374977,192.45077449496603 23.781835655943723,192.75572145704064 23.665064872649964,193.1695764412434 23.561268620862393,193.64877463728044 23.52234502643114,194.0408440430765 23.40557424313738,194.67250792550476 23.3925997116894,194.99922893162147 23.496395963506075,195.52198014240275 23.535319557908224,195.84869814975536 23.535319557908224,196.37144456254464 23.353676117258146,196.2843203654411 22.45843344545574,196.3932255989639 21.97837578089093,196.21897716383683 21.368572801555274,196.37144456254464 20.564151850092458,196.43678765649383 19.954348870756803,196.58925469640235 19.266698702558642,196.67637860644027 18.553099471406313,196.6545976366615 17.19077366651618,196.9159689361477 16.334454589145025,196.80706431772705 15.607880826544715,196.78528337869648 15.25756847669254,196.67637860644027 14.972128784254892,196.67637860644027 14.154733301314991,196.50213070440805 13.752522825583583,196.37144456254464 13.0,195.89226046361 13.012974531506188,195.87047930921835 13.038923594431253,195.87047930921835 14.115809706883738,196.3932255989639 14.453147525229724,196.50213070440805 14.894281595392385,196.52391171007912 15.25756847669254,196.4585686775681 16.516098029795103,196.6545976366615 17.151850072084926,196.63281666167313 17.76165305142058,196.67637860644027 20.084094185498543,196.43678765649383 20.239788563194452,196.41500663033366 20.304661220579874,196.37144456254464 21.23882748678443,196.1971960863957 21.80970687168883,196.1318528231859 22.121095627109753,196.175415003745 22.328688130714,196.08829062213044 22.8995675156184,196.00116615847946 23.665064872649964,196.02294728204288 24.754925516608637,195.89226046361 25.131186929385876,195.73979227549717 25.481499279208947,195.6526674837587 25.89668428641744,195.50019890093972 26.93464680443867,195.2170422949639 27.11629024508875,195.10813567739388 28.011532916862052,194.75963363992923 28.55646323884139,194.4546932806552 28.802979336876888,194.43291178795334 28.958673714572797,194.4546932806552 29.114368092268705,194.4111302901074 30.1004324843816,194.08440720781073 30.891878904396435,193.7359013154637 31.086496876523597,193.58342957484274 31.35896203748416,193.53986617420014 31.99471407980309,193.34383061780682 32.13743392599281,193.34383061780682 33.032676597795216,193.12601284589618 33.305141758784885,192.95175825916522 33.57760691974545,192.8646308428215 33.79817395482678,192.75572145704064 34.09658817877062,192.7339395644667 34.382027871208265,192.64681194302102 34.589620374841616,192.6032481016082 34.88803459878545,192.62503002486483 35.601633829879574,192.4725564541368 35.990869774163,192.4289925306366 36.82123978857999,192.1676085590443 37.28832292169682,192.0586983529356 37.53483901970321,192.08048040439462 38.43008169150562,191.9280059364828 39.27342623739969,191.94978801874822 40.11677078329376,191.8626596591348 40.27246516098967,191.88444175671611 40.96011532918783,191.84087755637302 41.206631427194225,191.88444175671611 42.257568476721644,191.84087755637302 42.270543008169625,191.71018483231455 42.38731379143428,191.77553121739038 42.78952426719479,191.8626596591348 43.542047092778375,191.73196696578088 45.864488226827234,191.6666205500078 47.79769341662177,191.6666205500078 48.718885151378345,191.55770975435007 49.06919750123052,191.49236321542412 49.45843344548484,191.53592757986917 49.938491110049654,191.49236321542412 50.23690533399349,191.49236321542412 51.27486785201472,191.42701663047046 52.46852474773186,191.25275884479197 52.89668428641744,191.2309765985483 53.27294569919468,191.27454108592065 53.5843344545865,191.25275884479197 53.97357039884082,191.165629828909 54.55742431525141,191.165629828909 55.36184526671423,191.10028301320563 55.72513214801438,191.12206529021933 56.11436809229781,191.10028301320563 56.737145603081444,191.01315385378257 57.69726093226927,191.0567184436877 57.82700624701101,191.2091943471096 57.95675156178186,191.2309765985483 58.59250360407168,191.12206529021933 58.968765016819816,191.12206529021933 59.88995675157639,190.9260246123158 60.62950504565379,190.83889528887812 61.00576645846013,190.86067762741732 62.74435367615661,190.72998351915885 64.35319557908224,190.6428540111665 65.15761653054506,190.53394201071933 66.0139356078871,190.5992892263239 66.77943296491867,190.49037717466854 67.0,190.51215959527326 66.97405093707494,190.57750682632468 66.48101874103304,190.66463639582798 65.83229216726613,190.7082011498569 65.4430562229827,190.68641877538903 65.06679481020547,190.7735482424323 62.342143200396094,191.03493615128536 59.7991350312368,191.14384756216168 58.56655454111751,191.27454108592065 58.047573282092344,191.27454108592065 57.95675156178186,191.2091943471096 57.33397405096912,191.2309765985483 56.97068716963986,191.18741209054133 56.42575684768963,191.27454108592065 54.7260932244244,191.33988777859486 54.02546852477826,191.47058102555457 52.8447861605091,191.55770975435007 49.432484382530674,191.53592757986917 47.83661701105302,191.75374909418315 44.51513695338508,191.9062238491606 43.684766938968096,191.971570095855 42.3743392599863,192.12404449199676 42.114848630473716,192.10226245073864 41.71263815474231,191.8626596591348 41.62181643440272,191.8626596591348 41.50504565113806,191.88444175671611 41.36232580491924,191.971570095855 40.75252282558358,192.10226245073864 39.68861124460818,192.1458265280453 39.299375300324755,192.18939058485557 37.52186448825523,192.29830063713598 35.87409899086924,192.5379023009591 35.05670350792934,192.75572145704064 34.654493032197934,192.7775033444268 34.17443536763312,192.88641270464723 33.99279192695394,192.75572145704064 33.94089380107471,192.55968423961167 33.94089380107471,192.18939058485557 33.91494473812054,192.10226245073864 33.901970206643455,191.971570095855 33.901970206643455,191.73196696578088 33.92791926956852,191.51414540020778 33.91494473812054,191.10028301320563 33.876021143689286,191.01315385378257 33.811148486303864,190.16364025067742 33.746275828947546,189.88046731675422 33.75925036042463,189.16163982392027 33.73330129744136,189.0091605470734 33.655454108607955,187.37543824344903 33.77222489187261,186.65659129312553 33.77222489187261,185.8288212213738 33.72032676599338,185.43671702415304 33.70735223451629,184.50001693951344 33.57760691974545,184.32574611022574 33.175396444043145,184.30396223354182 32.57856799615547,184.3693138483286 32.215281114855316,184.3475299818747 32.020663142728154,184.23861057255272 31.968765016819816,183.933635544563 31.839019702078076,182.86621503185597 31.839019702078076,181.16703044974565 31.813070639123907,180.84026060708857 31.72224891881342,180.51348961061012 31.735223450290505,180.2302871469583 31.69629985585925,179.83815922808571 31.644401729950914,179.55495469774178 31.683325324382167,179.24996423431003 31.644401729950914,178.92318762229115 31.657376261428,178.50926892396092 31.644401729950914,178.40034264299902 31.63142719847383,177.9428508629062 31.644401729950914,177.52892777958914 31.566554541088408,176.6575047103106 31.527630946657155,175.65535803595412 31.47573282077792,175.39392668387882 31.50168188373209,175.06713645509444 31.60547813551966,174.9582061224719 31.748197981738485,174.84927566150145 31.839019702078076,174.65320050877926 32.020663142728154,174.45712494051259 32.18933205190115,174.39176632545423 32.306102835194906,174.2828351977223 32.57856799615547,174.13033140351763 33.525708793866215,174.36998011019023 33.8630466122122,174.36998011019023 33.99279192695394,174.34819388974574 34.602594906289596,174.08675884477998 35.26429601153359,173.71639126668015 35.57568476695451,173.5856729440129 35.92599711677758,173.52031371346675 36.58769822202157,173.62924573880446 37.69053339739912,174.08675884477998 38.00192215282004,174.13033140351763 38.76741950985161,174.17390394180256 39.1826045170601,173.9342547274573 39.49399327248102,173.5856729440129 39.68861124460818,173.19351686822483 39.7534839019645,172.60527963841741 39.70158577608527,172.34383966929454 39.59778952426859,172.0823989616256 39.416146083618514,171.7773838690482 39.22152811149135,171.29807240667287 39.07880826527253,171.12377671379363 38.96203748197877,171.05841574438818 38.923113887547515,170.94948069274687 38.54685247479938,170.75339727661776 38.18356559347012,170.491952075492 38.00192215282004,170.29586768986337 37.83325324364705,170.27408051022212 37.27534839019063,170.07799566294125 36.70446900528623,169.51152599223133 36.665545410854975,169.44616388404393 36.626621816452825,169.2282898565536 36.54877462759032,168.9450528538655 36.54877462759032,168.55287711124402 36.58769822202157,168.16069970656827 36.61364728497574,167.70315730031143 36.96395963479881,166.897005651379 37.04180682366132,166.50482122871472 36.89908697741339,166.46124507915374 36.30225852958392,166.72270166876842 35.86112445939216,166.85342968656187 35.16049975974602,166.85342968656187 34.382027871208265,166.78806570071902 34.08361364729353,166.67912562182028 33.59058145125164,166.395880816337 33.48678519943496,166.35230461546598 32.954829408961814,165.9601178842131 32.77318596828263,165.78581213673897 32.63046612206381,165.56792949073133 32.34502642962616,165.2846812839416 32.111484863067744,165.2628929243947 31.99471407980309,165.30646963824256 31.955790485371836,165.37183467065188 31.9817395482969,165.54614119793405 32.05958673715941,165.8293886044412 32.085535800113576,166.1779996067562 32.098510331561556,166.78806570071902 32.07256126863649,167.1366730914815 32.111484863067744,167.463491327464 32.124459394515725,167.8556716870662 32.111484863067744,168.11712433674256 32.13743392599281,168.2478503845632 32.085535800113576,168.50930192612577 32.18933205190115,169.0104153160355 32.17635752042406,170.03442119598913 32.28015377224074,170.94948069274687 32.35800096107414,172.06061220260017 32.42287361845956,172.43098640768585 32.35800096107414,173.14994386826584 32.39692455550539,173.5856729440129 32.37097549258033,173.65103212845133 32.38395002402831,173.9778273579941 32.94185487748473,174.30462143354816 33.13647284961189,174.34819388974574 33.40893801060156,174.47891113523656 33.94089380107471,174.45712494051259 34.213358962064376,174.39176632545423 34.66746756367502,174.21747645962023 34.90100913023343,174.02139996807819 35.082652570912614,173.694604892371 35.10860163383768,173.4113815599485 35.03075444497517,173.1281573605811 34.6804420951521,172.30026626931794 34.30418068237486,171.6248759457667 34.04469005286228,171.38522012990143 33.66842864011414,171.12377671379363 33.2143200384744,170.66624895830319 32.92888034597854,170.14335732490144 32.66938971649506,169.33722693441814 32.682364247972146,168.96684034642385 32.7212878424034,168.7053900975443 32.799135031265905,168.42215149433468 32.85103315714514,168.16069970656827 33.162421912536956,167.55064266209956 33.39596347909537,167.22382473390462 33.48678519943496,167.1366730914815 33.72032676599338,167.04952136686188 34.45987506007077,166.65733759060095 34.498798654502025,166.63554955432483 34.537722248904174,166.52660929579724 34.524747717456194,166.48303315653175 34.005766458431026,166.395880816337 33.72032676599338,166.2651521522057 33.188370975491125,165.98190607957076 32.902931283053476,165.74223564856948 32.73426237388048,165.54614119793405 32.28015377224074,164.95785535250616 31.916866890940582,164.3695657669814 31.839019702078076,164.10810252838564 31.78712157616974,163.7159062853243 31.735223450290505,163.0840310638523 31.72224891881342,163.14939766615134 31.761172513244674,163.3237083799395 31.890917827986414,163.7159062853243 32.00768861125107,164.1298911598642 32.03363767420524,164.347777191957 32.04661220568232,165.0667974578173 32.111484863067744,165.48077628865576 32.07256126863649,165.80760037315486 32.13743392599281,166.57018541463185 32.17635752042406,167.79030840920313 32.111484863067744,168.55287711124402 32.241230177809484,169.81654855353554 32.2282556463324,170.0126339548442" stroke="#4dd2ff" stroke-linecap="round" stroke-linejoin="round" stroke-width="0.5"><title>2022-08-08 10.1km</title></polyline><polyline fill="none" points="146.09488084728946,170.0375135001268 146.09488084728946,170.41765207564458 146.0710503089067,171.03787452222969 146.1782877316873,172.1782717241149 146.15445719327545,173.29864705524233 146.20211827007006,173.83882274117423 146.15445719327545,174.01888054021038 146.21403353926144,174.1389188609246 146.22594880848192,174.35898867524156 146.20211827007006,174.73910792137394 146.14254192408407,175.0191946990708 146.1306266548927,175.1792438718512 146.15445719327545,175.79943156959052 146.14254192408407,176.21955614834587 146.15445719327545,177.01978769579 146.19020300087868,177.35988382183132 146.11871138570132,177.90003369524857 146.10679611650994,178.44018013579625 146.1306266548927,178.86029166060325 146.21403353926144,179.28040110876464 146.27360988524742,179.76052364964926 146.21403353926144,180.16062369510837 146.19020300087868,180.38067791725553 146.26169461605605,180.60073156958606 146.16637246249593,181.32090317570328 146.10679611650994,181.6809866902804 146.0710503089067,181.78100961806922 146.0710503089067,182.0810776950384 146.01147396292072,182.40114914283913 146.01147396292072,182.5211756250028 145.80891438658,183.38136045336432 145.68976169460802,183.70142700435463 145.64210061784252,184.04149639409297 145.58252427185653,184.30154853875138 145.5467784642533,184.74163497097106 145.42762577228132,185.50177889554107 145.2250661959406,186.3819370518213 145.11782877316,186.98203965981156 144.9629302736139,187.56213482005478 144.87952338921605,188.30225048316424 144.97484554280527,188.56228959156942 145.02250661959988,188.82232790434864 144.99867608118802,189.1223711228704 145.02250661959988,189.3023965456232 145.0105913503794,189.38240772213976 144.9510150043934,189.4024105045064 144.60547219769796,189.32239934680183 144.3790820829454,189.32239934680183 144.14077669903054,189.38240772213976 143.97396293026395,189.36240493509104 143.7833186231437,189.2423881137147 143.65225066195126,189.26239092902324 143.34245366285904,189.38240772213976 142.53221535746707,189.4824215869412 141.79346866725245,189.6224407999398 140.8045013239025,189.7224543823395 139.01721094438108,189.9624864998732 137.95675198588287,189.78246247523566 137.8971756398969,189.74245708466697 137.02736098851892,189.66244624701358 136.669902912603,189.6224407999398 136.38393645189353,189.52242709991333 136.0860547219636,189.36240493509104 134.7515445719182,188.56228959156942 134.23918799648527,188.4222686320536 133.78640776698012,188.1222229420564 133.0,187.6421476348478 133.08340688436874,187.6621508267599 133.40511915268144,187.82217619281437 134.1200353045133,188.24224134517135 134.26301853486802,188.38226260126612 134.54898499557748,188.4222686320536 135.0255957634654,188.5822925669272 135.38305383935221,188.86233372801144 135.94307149160886,189.2223852936513 136.27669902914204,189.4024105045064 136.5626654898515,189.50242434581014 137.8971756398969,189.6824489635219 137.96866725507425,189.6424435258632 138.40953221532982,189.70245167531175 138.87422771402635,189.6424435258632 139.04104148279293,189.6424435258632 139.36275375110563,189.6224407999398 139.98234774931916,189.6824489635219 140.95939982347772,189.50242434581014 141.19770520739257,189.4024105045064 141.63857016767724,189.36240493509104 141.80538393644383,189.38240772213976 142.0317740511964,189.32239934680183 142.42497793468647,189.32239934680183 142.71094439539593,189.20238246893496 143.11606354810647,189.20238246893496 143.35436893202132,189.1223711228704 144.12886142983916,188.9823510860515 144.7484554280527,189.0023539625472 145.10591350396862,189.2223852936513 145.47528684904682,189.0023539625472 145.9638128861552,188.9223424282427 146.16637246249593,188.84233081854836 146.42850838482263,188.80232498547775 147.0361871138739,188.50228063718532 147.7272727272648,188.26224439585712 147.87025595761952,188.14222602097288 148.16813768754946,188.0222074766789 148.56134157103952,187.96219814098004 149.16902030009078,187.7421635474493 149.46690202999162,187.58213803079343 149.7886142983043,187.58213803079343 150.19373345101485,187.4821219298392 152.243159752863,186.52196137270948 152.46954986761557,186.4619509777076 152.60061782877892,186.3819370518213 152.77934686670778,186.3819370518213 152.88658428948838,186.28191953854912 153.12488967343234,186.30192305061064 153.1963812886097,186.36193355860814 153.57766990290838,186.2219089741193 154.0423654015758,186.00186987524285 154.26875551632838,186.00186987524285 154.60238305383245,185.84184108185946 155.17431597528048,185.88184830845057 155.60326566637377,185.68181198725142 155.9011473962746,185.5817936500789 156.58031774050323,185.5617899684912 157.176081200334,185.3817566225698 157.8195057369885,185.28173793233145 158.8799646955158,185.24173042321854 159.2016769638285,185.16171534863315 159.48764342453796,185.20172289538095 159.7378640776733,185.12170778306245 160.631509267434,185.18171912438265 161.3345101500454,185.04169259543414 162.53795233892743,185.02168878677548 162.88349514562287,185.06169639937434 163.27669902914204,184.9816811552373 164.0988526036963,184.921669672789 165.683583406877,184.88166199422267 166.25551632832503,184.90166583583414 166.60105913502048,184.86165814784908 167.20873786407174,184.8416542967716 167.9236540159036,184.78164271544665 168.45984112971928,184.64161552736186 168.75772285964922,184.72163109165558 169.04368932038778,184.76163884553534 169.69902912620455,184.70162720761073 169.77052074138192,184.66161942551116 170.00882612532587,184.60160771702067 170.55692850836203,184.60160771702067 170.83097969990922,184.58160380473782 171.1050308914273,184.50158810862195 171.67696381290443,184.46158023237513 172.02250661959988,184.56159988774016 172.4872021182673,184.54159596608588 172.5944395410188,184.48158417284867 173.03530450133258,184.56159988774016 173.19020300087868,184.50158810862195 174.131509267434,184.50158810862195 174.48896734332084,184.46158023237513 174.7272727272648,184.46158023237513 175.22771403353545,184.44157628707399 175.513680494274,184.36156045917596 176.16902030009078,184.34155649044988 176.27625772287138,184.36156045917596 176.35966460724012,184.44157628707399 176.51456310681533,184.46158023237513 176.70520741393557,184.40156838257462 177.33671668136958,184.36156045917596 178.02780229478958,184.24153657606075 178.36142983229365,184.26154056833911 180.11297440424096,184.18152457091492 180.9947043248103,184.20152857734865 181.85260370696778,184.04149639409297 182.15048543689772,184.00148830131366 182.71050308915437,184.02149235003526 183.31818181820563,183.90146798663045 183.85436893202132,184.00148830131366 184.6646072374133,183.98148424778992 185.0935569285066,183.941476126638 185.28420123565593,184.00148830131366 185.52250661959988,184.00148830131366 185.76081200354383,183.941476126638 186.10635481023928,183.90146798663045 186.6782877316873,184.16152055975544 186.79744042365928,184.14151654393936 186.91659311563126,184.06150043355228 186.92850838482263,184.02149235003526 186.92850838482263,183.941476126638 186.88084730802802,183.72143112379854 186.61871138570132,183.68142288025774 186.51147396292072,183.68142288025774 186.71403353929054,183.68142288025774 187.0,183.72143112379854 187.0,183.90146798663045 186.85701676964527,184.10150849813726 186.54721977052395,184.14151654393936 186.18976169460802,184.00148830131366 185.2484554280527,184.08150446819127 184.58120035304455,184.02149235003526 184.46204766107257,184.06150043355228 184.10458958518575,184.06150043355228 183.31818181820563,184.00148830131366 182.47219770521042,184.14151654393936 181.78111209179042,184.18152457091492 180.97087378639844,184.28154455590266 177.89673433362623,184.4215723371708 177.5869373345049,184.46158023237513 177.39629302735557,184.52159203974225 176.5860547219636,184.56159988774016 176.30008826125413,184.66161942551116 176.06178287731018,184.66161942551116 175.6804942630115,184.58160380473782 175.2992056487128,184.56159988774016 174.69152691966156,184.70162720761073 173.90511915268144,184.6216116245414 173.38084730802802,184.74163497097106 172.90423654016922,184.72163109165558 172.61827007943066,184.76163884553534 171.99867608121713,184.72163109165558 171.1646072374133,184.76163884553534 169.9969108561345,184.78164271544665 169.22241835834575,184.8416542967716 169.06751985877054,184.82165044103022 168.8292144748557,184.8416542967716 168.57899382169126,184.78164271544665 168.447925860557,184.78164271544665 168.0785525154497,184.86165814784908 167.69726390115102,184.88166199422267 166.52956751987222,185.00168497341656 163.76522506619222,185.14171156823068 162.72859664604766,185.24173042321854 162.132833186246,185.20172289538095 161.88261253308156,185.22172666164988 161.72771403353545,185.14171156823068 161.5370697263861,185.18171912438265 161.38217122684,185.14171156823068 160.96513680493808,185.16171534863315 160.34554280669545,185.28173793233145 159.85701676964527,185.26173418014514 158.9991173874878,185.32174542258508 157.8790820829745,185.34174916063057 156.8067078552558,185.4817751951814 156.52074139451724,185.5617899684912 155.66284201235976,185.62180099903344 154.59046778464108,185.94185911306704 153.95895851720707,186.18190190755558 153.2440423653752,186.34193006068017 152.96999117388623,186.5619682791148 152.5529567519843,186.66198546287342 150.67034421890276,187.3020926516474 149.96734333626227,187.6621508267599 149.39541041484335,187.78216987954875 148.7281553398061,188.002204369448 148.4064430714934,188.16222909525823 147.89408649600227,188.3422565516339 147.25066195937688,188.5422866114459 146.6548984995461,188.68230737323756 146.21403353926144,188.86233372801144 145.9638128861552,188.84233081854836 145.52294792587054,188.84233081854836 144.61738746688934,189.0423597015506 144.18843777582515,189.20238246893496 144.02162400705856,189.20238246893496 143.71182700793725,189.1823796395147 142.94924977933988,189.34240214326928 142.84201235655928,189.32239934680183 141.84112974401796,189.4824215869412 141.2334510149958,189.52242709991333 140.25639894086635,189.66244624701358 139.51765225065174,189.70245167531175 139.0529567519843,189.6824489635219 138.65975286849425,189.70245167531175 138.32612533096108,189.6424435258632 137.6707855251443,189.6224407999398 137.33715798764024,189.58243533410496 136.33627537509892,189.36240493509104 136.0264783759776,189.2223852936513 134.47749338040012,188.3622595788329 133.98896734332084,188.22223828979259 133.25022065313533,187.72216037437101 133.09532215356012,187.6621508267599 133.33362753750407,187.72216037437101 133.65533980581677,187.84217934240223 134.31067961163353,188.22223828979259 134.7992056487128,188.5822925669272 135.06134157103952,188.72231326281326 136.21712268315605,189.3023965456232 136.53883495146874,189.4224132821946 136.87246248897281,189.4824215869412 137.4682259488036,189.44241605519346 137.7899382171163,189.4824215869412 138.1473962930031,189.56243259406256 138.4810238305363,189.54242984931625 139.33892321269377,189.66244624701358 139.93468667255365,189.56243259406256 140.51853486319305,189.38240772213976 140.7091791703424,189.4224132821946 140.9713150926691,189.36240493509104 141.7219770520751,189.32239934680183 142.23433362753713,189.36240493509104 142.60370697264443,189.26239092902324 142.8896734333539,189.28239373965698 143.1994704324752,189.1623768053796 143.43777581641916,189.1623768053796 144.08120035304455,189.0423597015506 144.76037069727317,188.9823510860515 145.02250661959988,188.9223424282427 145.2250661959406,188.96234820484096 145.51103265665006,188.8823366328179 146.03530450130347,188.80232498547775 146.96469549866742,188.60229553758836 147.25066195937688,188.4222686320536 147.73918799648527,188.30225048316424 147.85834068842814,188.30225048316424 148.22771403353545,188.16222909525823 148.48984995586216,188.0222074766789 148.97837599294144,187.9021887628587 149.16902030009078,187.82217619281437 149.40732568400563,187.62214443821722 149.55030891436036,187.54213160455402 149.77669902914204,187.56213482005478 150.07458075904287,187.50212515946987 150.55119152693078,187.22207951661403 150.94439541039173,187.06205302081435 151.63548102384084,186.84201609693991 151.8737864077557,186.70199230335857 152.0763459841255,186.6819888854734 152.52912621360156,186.44194750328097 152.91041482790024,186.28191953854912 153.76831421005772,186.16189836724152 153.9947043248103,186.10188771805406 154.256840247137,185.9618627051459 154.35216240069713,185.82183746152805 154.30450132393162,185.06169639937434 154.316416593123,184.76163884553534 154.29258605471114,184.4215723371708 154.28067078551976,183.74143523852763 154.24492497794563,183.44137302350646 154.03045013238443,183.34135204975973 153.17255075022695,183.42136883814237 152.86275375110563,183.36135625391398 152.77934686670778,183.0812969671315 152.81509267431102,182.32113139389185 152.75551632832503,181.66098209061602 152.75551632832503,181.28089380206438 152.70785525155952,181.04083716510286 152.68402471314766,180.76077023161633 152.6125330979703,180.54071699365522 152.27890556046623,180.50070725278783 151.71888790820958,180.52071212559167 151.0158870255982,180.44069260620745 150.99205648721545,180.4206877145698 150.93248014122946,180.16062369510837 150.89673433362623,179.88055386101405 150.83715798764024,178.1000883327797 150.7537511032715,177.71998411887762 150.72992056485964,177.67997305008976 150.56310679612216,177.63996196246808 149.96734333626227,177.67997305008976 149.38349514562287,177.84001721219465 149.4192409532261,178.44018013579625 149.40732568400563,178.82028112870466 149.46690202999162,179.32041142414528 149.45498676082934,180.0806038366245 149.4192409532261,180.140618737536 149.25242718445952,180.2606484121534 148.6804942630115,180.28065334142593 148.47793468667078,180.2606484121534 148.15622241835808,180.28065334142593 146.94086496028467,180.2206385393947 146.52383053838275,180.2606484121534 146.32127096204204,180.10060880833043 146.3331862312334,179.74051859790052 146.27360988524742,178.72025471641246 146.27360988524742,178.40016940607165 146.16637246249593,177.8800282056327 146.1306266548927,177.35988382183132 146.1306266548927,176.61967286393337 146.15445719327545,176.3395913607783 146.15445719327545,175.95947927306042 146.11871138570132,175.33929274326147 146.1306266548927,174.61907044839973 146.10679611650994,174.3189760241221 146.11871138570132,173.73879046583534" stroke="#4dd2ff" stroke-linecap="round" stroke-linejoin="round" stroke-width="0.5"><title>2022-07-25 10.7km</title></polyline><polyline fill="none" points="23.236776743782684,257.61723080222146 23.565467395819724,261.75671557628084 23.89415804797318,262.86057077604346 25.04457533021923,263.50448486898676 26.961937467334792,264.2403853899741 29.8653715607943,264.97628452509525 31.125352393719368,264.79230987123447 32.49489677743986,264.3323728577525 33.75487761036493,263.22852181611233 34.850513117271475,262.0326796686859 38.246983188786544,261.2047868068621 39.506964021828026,261.2047868068621 42.30083456437569,261.94069165943074 43.88950604957063,262.1246676562296 46.79294014291372,263.50448486898676 48.655520504689775,263.5964725098165 50.189410214312375,263.41249720644555 50.79200974327978,263.3205095223093 51.942427025409415,262.58460726836347 52.928498981753364,261.6647275022988 53.85978916264139,260.3768921913288 54.6267340175109,258.4451312655292 54.352825140813366,255.6854562323715 53.58588028582744,253.20173203680315 52.490244778920896,251.08595452777809 51.66851814871188,250.07405688636936 49.03899293218274,248.2342362786294 46.40946771542076,247.40631417869008 43.56081539741717,246.11843186951592 42.13648923847359,244.278592634917 41.369544383487664,241.15084605276934 42.02692568767816,234.98727214787505 42.35561633983161,233.42336479600635 43.067779419361614,232.22743142058607 43.23212474538013,231.30748017915175 42.84865231788717,231.30748017915175 40.65738130395766,232.22743142058607 37.31569300789852,233.05538568555494 34.521822465234436,232.77940112550277 30.19406221283134,233.7913435595692 29.262772031943314,234.25131652667187 28.331481851055287,235.17126083635958 27.454973445506766,236.64316722683725 27.181064568809234,236.82715513577568 26.742810365976766,237.56310590473004 26.742810365976766,238.02307443143218 26.304556163144298,239.12699668642017 26.085429061902687,241.15084605276934 23.29155851912219,243.6346468560514 23.12721319310367,244.0026160023117 23.40112206991762,246.48639867661404 23.12721319310367,248.2342362786294 23.72981272195466,257.5252417536394 23.565467395819724,258.72109769698 24.00372159865219,262.58460726836347 24.825448228861205,263.5964725098165 27.181064568809234,264.5163477281749 28.660172503092326,264.70032251192606 31.125352393719368,264.4243603037321 36.32962105167098,261.29677498937235 41.424326158943586,261.2047868068621 43.72516072343569,261.8487036287552 47.285976121085696,263.3205095223093 48.54595695389435,263.3205095223093 49.75115601171274,263.5964725098165 51.99720880086534,262.7685829619586 53.03806253243238,262.0326796686859 54.298043365357444,260.6528572580719 54.73629756818991,259.5489958211838 54.51717046671547,256.2373927985027 54.133698039338924,254.4895909979241 53.03806253243238,251.9138688305975 52.27111767756287,250.99396394132054 51.39460927201435,250.53401068449602 47.17641257029027,247.59029701925465 44.4921055783052,246.48639867661404 43.122561194584705,245.38249721520697 42.30083456437569,244.1866004456533 41.862580361776054,243.1746849353949 41.5338897096226,240.50689511862583 39.835654673865065,237.10313683660934 39.01392804365605,236.09120298019843 36.767875254387036,233.9753328114748 35.50789442146197,233.51535951934056 33.97400471183937,233.33137005066965 31.180134169058874,233.69934890099103 29.8653715607943,234.06732740497682 28.988863155129366,234.7112889525306 26.633246815297753,238.11506807198748 25.975865511223674,240.4149020414916 25.81152018508874,241.97878140828107 26.249774387921207,245.19851333505358 25.04457533021923,245.75046471561654 23.620249171275645,247.03834823778016 23.12721319310367,248.14224502071738 22.908086091745645,250.99396394132054 23.565467395819724,255.04152925332892 23.675030946498737,259.27302997457446 24.277630475349724,262.86057077604346 24.93501177954022,263.87243530282285 27.674100546864793,265.0682718195021 28.988863155129366,264.97628452509525 32.385333226644434,263.87243530282285 33.86444116104394,262.7685829619586 35.28876732010394,262.30864356597885 38.19220141344704,261.57273940663435 39.506964021828026,261.57273940663435 42.90343409322668,262.30864356597885 45.149486882495694,263.7804477267491 46.68337659223471,264.3323728577525 49.91550133761484,264.3323728577525 51.99720880086534,263.04454633951536 52.928498981753364,262.58460726836347 53.58588028582744,261.8487036287552 54.352825140813366,260.2849037924898 54.6267340175109,257.43325268346234 54.298043365357444,255.40948765710345 52.5450265542604,252.1898398749181 50.2989737651078,249.98206606163876 44.875578005681746,247.31432272610255 43.834724274114706,246.3944070073194 42.13648923847359,244.0026160023117 41.5338897096226,242.62272991630016 40.93129018077161,239.67895664428943 39.506964021828026,236.4591792312276 37.53482010925654,234.43530556192854 36.000930399633944,233.60735422099242 32.87836920481641,233.14738049570587 31.454043045756407,233.42336479600635 30.084498662152328,233.7913435595692 28.879299604450352,234.89527777090552 27.454973445506766,237.01114295781008 26.578465039958246,239.402976762678 25.921083735767752,242.80671500918106 27.290628119488247,247.59029701925465 27.89322764822282,248.69419224272133 29.591462683980353,250.99396394132054 30.632316415547393,251.8218784389901 32.056642574607395,252.3738204629044 32.8235874294769,253.20173203680315 34.357477139215916,255.77744571410585 34.850513117271475,256.9733070068178 36.11049395031296,259.4570072272618 36.4939663776895,261.2047868068621 37.206129457219504,262.1246676562296 38.19220141344704,262.58460726836347 40.712163079413585,262.30864356597885 43.834724274114706,262.86057077604346 46.190340614062734,263.96442285724333 47.779012099141255,264.2403853899741 49.36768358410336,264.1483979007171 50.51810086646583,263.7804477267491 51.17548217065632,263.22852181611233 52.490244778920896,262.7685829619586 54.133698039338924,261.0208103773766 54.681515792850405,258.9050752093317 54.6267340175109,256.69733934113174 53.969352713320404,254.94953959831037 52.43546300358139,252.46581072433037 48.54595695389435,249.24613868500455 47.285976121085696,248.51020992177655 46.08077706338372,248.6022010933375 45.587741085211746,248.2342362786294 43.615597172873095,246.57839032416814 42.51996166585013,244.92253735248232 41.64345326030161,242.80671500918106 41.588671484962106,240.59888817431056 42.30083456437569,236.18319707535557 42.84865231788717,234.25131652667187 43.56081539741717,232.68740622868063 43.34168829605915,231.9514462754014 39.999999999883585,233.05538568555494 36.93222058052197,233.42336479600635 29.536680908640847,231.49147060065297 27.948009423562326,230.663513021369 23.839376272517256,226.43170243588975 21.593323483364657,222.75182988555753 21.264632831327617,220.2678963204089 21.264632831327617,213.0 20.99072395451367,213.0919995328877 20.935942179290578,213.5519968699664 21.976795910857618,217.04795893546543 23.017649642424658,223.76379829226062 23.236776743782684,227.25966898343177 23.29155851912219,234.8032833726029 22.85330431640614,237.56310590473004 23.510685620596632,241.8867886775115 23.346340294461697,242.99070001582731 23.565467395819724,245.29050528581138 23.346340294461697,246.3944070073194 23.45590384514071,249.1541476653074 23.784594497294165,250.44201996835181 24.058503373991698,253.47770217171637 24.222848700010218,258.62910890806234 24.44197580148466,259.7329729439807 24.332412250805646,262.2166556219454 24.715884678182192,263.68846012919676 25.482829532935284,265.0682718195021 25.482829532935284,266.3560916676943 25.756738409749232,267.0 29.81058978533838,266.63205251138425 32.33055145142134,266.2641046763165 34.138350037741475,266.3560916676943 36.11049395031296,265.89615649497136 38.082637862768024,265.9881435727293 41.205199057469144,265.5282079669123 42.73908876720816,265.89615649497136 48.326829852652736,265.0682718195021 50.572882641805336,265.252246343618 51.99720880086534,265.0682718195021 53.42153495992534,265.3442335728614 54.6267340175109,265.0682718195021 55.83193307509646,265.252246343618 57.311041009495966,264.97628452509525 58.18754941492807,264.4243603037321 58.790148943895474,263.3205095223093 59.06405782059301,261.2047868068621 58.84493071923498,256.2373927985027 58.2971129657235,253.20173203680315 58.02320408902597,250.62600137933623 56.8727868066635,247.40631417869008 56.434532603947446,247.22233125154162 54.57195224217139,247.31432272610255 54.24326159001794,246.8543651373766 54.133698039338924,244.37058480229462 54.79107934352942,242.71472247384372 55.17455177102238,236.27519114906318 54.57195224217139,229.19158410353702 53.805007387301885,226.61569515359588 53.31197140912991,226.33970604464412 51.8328634747304,226.15571319687297 50.51810086646583,226.33970604464412 48.326829852652736,227.0756765686965 47.779012099141255,228.2716257137945 46.79294014291372,229.65156248598942 45.75208641134668,230.93949907601927 44.108633150928654,232.22743142058607 42.629525216529146,233.05538568555494 41.31476260826457,233.51535951934056 39.17827336967457,234.25131652667187 37.86351076141,234.25131652667187 35.34354909544345,234.06732740497682 32.54967855277937,233.42336479600635 30.303625763510354,232.31942642555805 27.674100546864793,230.75550839444622 26.85237391665578,230.01954480193672 25.592393083614297,228.91559681395302 24.49675757670775,227.71964964008657 24.277630475349724,227.16767278659972 23.565467395819724,226.61569515359588 22.85330431640614,226.61569515359588 22.469831888913177,227.0756765686965 23.072431417764165,228.45561756499228 23.29155851912219,230.93949907601927 23.236776743782684,232.41142140878947 23.510685620596632,233.7913435595692 23.29155851912219,238.20706169048208 24.058503373991698,245.4744891228911 23.839376272517256,248.97016556118615 24.058503373991698,254.4895909979241 24.387194026028737,257.15728534260415 24.387194026028737,259.82496147279744 24.16806692467071,261.11279860296054 24.60632112750318,263.50448486898676 24.989793554879725,264.3323728577525 26.194992612465285,264.79230987123447 27.290628119488247,265.4362207806262 28.495827177073807,265.7121822742338 30.248843988170847,265.3442335728614 32.49489677743986,264.4243603037321 33.5357505090069,263.7804477267491 36.22005750099197,262.86057077604346 39.28783692047,262.49261938928976 40.38347242726013,262.58460726836347 42.08170746313408,263.04454633951536 43.39647007139865,263.04454633951536 44.93035978113767,263.68846012919676 47.01206724427175,264.79230987123447 48.10770275129471,264.79230987123447 49.14855648286175,265.160259092605 49.80593778693583,265.0682718195021 52.21633590222336,263.96442285724333 53.092844307771884,263.22852181611233 54.07891626399942,261.8487036287552 54.6267340175109,260.6528572580719 55.06498822022695,256.14540342477267 53.805007387301885,253.38571214830154 52.81893543107435,251.7298880259914 49.5868106855778,249.89007521537133 48.326829852652736,248.69419224272133 44.875578005681746,247.22233125154162 42.57474344118964,245.29050528581138 41.862580361776054,243.91062374858302 41.80779858632013,242.1627668046276 40.98607195611112,238.85101641496294 39.61652757250704,236.55117324006278 38.082637862768024,234.89527777090552 36.82265702984296,233.7913435595692 34.357477139215916,233.14738049570587 31.94707902392838,232.96339085389627 30.90622529236134,232.68740622868063 28.27670007571578,231.1234896708629 25.318484206916764,228.36362165008904 24.387194026028737,227.16767278659972 23.40112206991762,226.61569515359588 22.68895899038762,226.8916840678139 22.96286786708515,230.47952220981824 23.510685620596632,234.5273000469897 23.29155851912219,238.20706169048208 23.620249171275645,240.04692951613106 24.222848700010218,248.05025374132674 24.93501177954022,249.06215662424802 26.41411971382331,249.6141025464167 27.674100546864793,249.43012065911898 28.331481851055287,249.24613868500455 28.495827177073807,248.97016556118615 27.235846344032325,247.77427977282787 26.41411971382331,246.21042360371212 25.428047757712193,243.6346468560514 26.030647286446765,240.4149020414916 27.674100546864793,237.28712452881155 29.755808010115288,234.6192945105431 30.687098191003315,233.69934890099103 32.8235874294769,233.14738049570587 34.63138601591345,232.77940112550277 36.38440282701049,233.14738049570587 37.69916543527506,233.69934890099103 38.794800942298025,234.34331105509773 40.05478177522309,235.72322638260084 40.98607195611112,237.19513069360983 42.84865231788717,240.96686017993488 43.01299764390569,245.4744891228911 42.41039811517112,247.49830560971168 41.69823503564112,248.78618337074295 40.712163079413585,250.25803847040515 39.78087289852556,251.26993563541328 38.63045561616309,252.2818301798543 35.94614862417802,253.38571214830154 33.04271453095134,253.66168215297512 31.618388371891342,253.38571214830154 29.1532084812643,251.45391665652278 27.071501018013805,248.418218729028 25.921083735767752,245.29050528581138 25.537611308391206,243.08269248649594 26.030647286446765,240.23091582232155 27.40019167016726,237.19513069360983 28.879299604450352,235.0792665029876 29.974935111473314,233.9753328114748 31.289697719737887,233.14738049570587 31.399261270533316,232.77940112550277 28.550608952413313,231.58346577905468 26.35933793860022,229.74355809765984 24.16806692467071,227.25966898343177 23.017649642424658,226.98368032916915 22.634177214931697,227.25966898343177" stroke="#4dd2ff" stroke-linecap="round" stroke-linejoin="round" stroke-width="0.5"><title>2022-05-08 10.1km</title></polyline></svg>